<svg xmlns="http://www.w3.org/2000/svg" width="470" height="450.65" viewBox="0 0 470 450.65"><path d="M73.83,423.36c91.77,55.95,240.57,55.95,332.34,0s91.77-146.67,0-202.62-240.57-56-332.34,0S-17.94,367.41,73.83,423.36Z" transform="translate(-5 -14.67)" style="fill:#0067b8;opacity:0.2"/><path d="M70.47,252.44l6-7.14s-2.32-20.37-10.26-36.58c-11.17-22.78-30-26-35.21-21.8s-4.39,11.73,10.57,22.26C50.38,215.4,63.82,230.16,70.47,252.44Z" transform="translate(-5 -14.67)" style="fill:#058ae5"/><g style="opacity:0.65"><path d="M70.47,252.44l6-7.14s-2.32-20.37-10.26-36.58c-11.17-22.78-30-26-35.21-21.8s-4.39,11.73,10.57,22.26C50.38,215.4,63.82,230.16,70.47,252.44Z" transform="translate(-5 -14.67)" style="fill:#fff"/></g><path d="M70.25,242.1h-.07a.54.54,0,0,1-.64-.46C65.72,218.28,49.13,196.49,36,189.72a.56.56,0,0,1-.25-.75.57.57,0,0,1,.76-.25c13.42,6.9,30.31,29,34.18,52.75A.57.57,0,0,1,70.25,242.1Z" transform="translate(-5 -14.67)" style="fill:#fff"/><path d="M55.41,270.4c-.92,1-4.87-.49-5.93-.81a11.27,11.27,0,0,1-4.82-3,10.53,10.53,0,0,1-2.74-5.75,24.5,24.5,0,0,1-.23-3.43l-.06-3.38a8.19,8.19,0,0,0-.51-3.27c-.93-2-3.27-2.95-5.38-3.7-2.34-.84-4.89-2.1-5.67-4.66a9.39,9.39,0,0,1,.61-6c.74-1.93,1.77-3.74,2.37-5.72a6.56,6.56,0,0,0,.06-4.37,6.79,6.79,0,0,0-1.63-2.21,37.82,37.82,0,0,1-4.25-4.14c-1.17-1.6-1.77-3.85-.77-5.56a6.08,6.08,0,0,1,4.06-2.45,10.4,10.4,0,0,1,4.54.18c4.75,1,8.55,5.09,13.39,5.5a45.89,45.89,0,0,0,5.61-.33,6.71,6.71,0,0,1,5.21,1.62c2.55,2.67.82,7.46,3,10.47,1.89,2.67,5.13,2.91,7.57,5.09a6.57,6.57,0,0,1,2,3.65,19.34,19.34,0,0,1,.39,7.07,61,61,0,0,1-1.68,7.27S55.56,270.25,55.41,270.4Z" transform="translate(-5 -14.67)" style="fill:#058ae5"/><g style="opacity:0.30000000000000004"><path d="M55.41,270.4c-.92,1-4.87-.49-5.93-.81a11.27,11.27,0,0,1-4.82-3,10.53,10.53,0,0,1-2.74-5.75,24.5,24.5,0,0,1-.23-3.43l-.06-3.38a8.19,8.19,0,0,0-.51-3.27c-.93-2-3.27-2.95-5.38-3.7-2.34-.84-4.89-2.1-5.67-4.66a9.39,9.39,0,0,1,.61-6c.74-1.93,1.77-3.74,2.37-5.72a6.56,6.56,0,0,0,.06-4.37,6.79,6.79,0,0,0-1.63-2.21,37.82,37.82,0,0,1-4.25-4.14c-1.17-1.6-1.77-3.85-.77-5.56a6.08,6.08,0,0,1,4.06-2.45,10.4,10.4,0,0,1,4.54.18c4.75,1,8.55,5.09,13.39,5.5a45.89,45.89,0,0,0,5.61-.33,6.71,6.71,0,0,1,5.21,1.62c2.55,2.67.82,7.46,3,10.47,1.89,2.67,5.13,2.91,7.57,5.09a6.57,6.57,0,0,1,2,3.65,19.34,19.34,0,0,1,.39,7.07,61,61,0,0,1-1.68,7.27S55.56,270.25,55.41,270.4Z" transform="translate(-5 -14.67)" style="fill:#fff"/></g><path d="M64.3,260.69h0a.52.52,0,0,1-.65-.37C58.28,240,42,220.76,33.13,216.44a.53.53,0,0,1-.24-.71.52.52,0,0,1,.7-.24c9,4.4,25.63,23.95,31.06,44.56A.52.52,0,0,1,64.3,260.69Z" transform="translate(-5 -14.67)" style="fill:#fff"/><path d="M53.51,237.16l-.16,0a71.06,71.06,0,0,0-15.29,2.14.53.53,0,0,1-.27-1,72.78,72.78,0,0,1,15.56-2.18.53.53,0,0,1,.53.53A.54.54,0,0,1,53.51,237.16Z" transform="translate(-5 -14.67)" style="fill:#fff"/><path d="M52.89,270.41a9,9,0,0,0,4.21,7l117.71,68a9.28,9.28,0,0,0,8.4,0l161.06-93a7.89,7.89,0,0,0,0-14l-117.71-68a9.28,9.28,0,0,0-8.4,0l-161.07,93A9,9,0,0,0,52.89,270.41Z" transform="translate(-5 -14.67)" style="fill:#37474f"/><path d="M179,337.26v9.09a8.55,8.55,0,0,1-4.2-1l-117.72-68a7.87,7.87,0,0,1-.42-13.68c-1.89,1.35-1.74,3.33.42,4.58l117.72,68A8.56,8.56,0,0,0,179,337.26Z" transform="translate(-5 -14.67)" style="fill:#263238"/><path d="M49,263.59A9,9,0,0,1,45,256.46V116a9.29,9.29,0,0,1,4.2-7.28l161.06-93a9.08,9.08,0,0,1,8.15-.15,9,9,0,0,1,3.94,7.13V163.17a9.29,9.29,0,0,1-4.2,7.28l-161.07,93A9,9,0,0,1,49,263.59Z" transform="translate(-5 -14.67)" style="fill:#455a64"/><path d="M56.6,263.69a9,9,0,0,1-7.65-.11A9,9,0,0,1,45,256.46V116a8.47,8.47,0,0,1,1.24-4.14l7.87,4.54h0a8.71,8.71,0,0,0-1.23,4.14V261C52.89,263.49,54.51,264.61,56.6,263.69Z" transform="translate(-5 -14.67)" style="fill:#263238"/><path d="M52.89,120.54V261c0,2.68,1.88,3.77,4.2,2.43l161.07-93a9.29,9.29,0,0,0,4.2-7.28V22.7c0-2.68-1.88-3.76-4.2-2.42l-161.07,93A9.29,9.29,0,0,0,52.89,120.54Z" transform="translate(-5 -14.67)" style="fill:#37474f"/><path d="M57.09,268.29l117.72,68a9.28,9.28,0,0,0,8.4,0l161.06-93c2.32-1.34,2.32-3.51,0-4.85l-117.71-68a9.28,9.28,0,0,0-8.4,0l-161.07,93C54.77,264.78,54.77,267,57.09,268.29Z" transform="translate(-5 -14.67)" style="fill:#455a64"/><path d="M59.35,121.06,214.64,31.43c1.39-.8,2.52-.15,2.52,1.46V154.48a5.57,5.57,0,0,1-2.52,4.37L59.35,248.48c-1.39.8-2.52.15-2.52-1.46V125.43A5.57,5.57,0,0,1,59.35,121.06Z" transform="translate(-5 -14.67)" style="fill:#f1f3f5"/><path d="M136.46,113.37c4.11-2.42,7.48-.52,7.53,4.25a16.53,16.53,0,0,1-7.37,13c-4.11,2.43-7.48.52-7.52-4.25A16.55,16.55,0,0,1,136.46,113.37Z" transform="translate(-5 -14.67)" style="fill:#0067b8"/><path d="M151.46,138.76c-.08-7.84-5.62-11.27-12.37-7.28L134.86,134c-6.75,4-12.17,13.57-12.09,21.42l0,2.11,28.68-16.92Z" transform="translate(-5 -14.67)" style="fill:#0067b8"/><path d="M166,142.78c-.27-.64-1-.8-1.76-.34L113.87,171.5a3.67,3.67,0,0,0-1.31,1.39,3.8,3.8,0,0,0-.55,1.84v5.92c0,1,.6,1.51,1.42,1.28l.13,0,.31-.16,50.37-29.06a4.12,4.12,0,0,0,1.87-3.23v-5.93A2.19,2.19,0,0,0,166,142.78Z" transform="translate(-5 -14.67)" style="fill:#0067b8"/><path d="M118.42,172.23c1-.56,1.77-.1,1.77,1a3.9,3.9,0,0,1-1.77,3.06c-1,.56-1.76.11-1.76-1A3.94,3.94,0,0,1,118.42,172.23Z" transform="translate(-5 -14.67)" style="fill:#fff"/><path d="M124.28,168.85c1-.56,1.77-.1,1.77,1a3.9,3.9,0,0,1-1.77,3.06c-1,.56-1.77.11-1.77-1A3.92,3.92,0,0,1,124.28,168.85Z" transform="translate(-5 -14.67)" style="fill:#fff"/><path d="M130.13,165.47c1-.56,1.77-.1,1.77,1a3.89,3.89,0,0,1-1.77,3.06c-1,.57-1.77.11-1.77-1A3.92,3.92,0,0,1,130.13,165.47Z" transform="translate(-5 -14.67)" style="fill:#fff"/><path d="M136,162.1c1-.57,1.77-.11,1.77,1a3.89,3.89,0,0,1-1.77,3.06c-1,.57-1.77.11-1.77-1A3.91,3.91,0,0,1,136,162.1Z" transform="translate(-5 -14.67)" style="fill:#fff"/><path d="M141.84,158.72c1-.57,1.77-.11,1.77,1a3.91,3.91,0,0,1-1.77,3.06c-1,.57-1.77.11-1.77-1A3.89,3.89,0,0,1,141.84,158.72Z" transform="translate(-5 -14.67)" style="fill:#fff"/><path d="M147.69,155.34c1-.57,1.77-.11,1.77,1a3.89,3.89,0,0,1-1.77,3.06c-1,.57-1.77.11-1.77-1A3.89,3.89,0,0,1,147.69,155.34Z" transform="translate(-5 -14.67)" style="fill:#fff"/><path d="M153.54,152c1-.57,1.77-.11,1.77,1a3.89,3.89,0,0,1-1.77,3.06c-1,.57-1.77.11-1.77-1A3.91,3.91,0,0,1,153.54,152Z" transform="translate(-5 -14.67)" style="fill:#fff"/><path d="M159.4,148.58c1-.57,1.77-.11,1.77,1a3.91,3.91,0,0,1-1.77,3.06c-1,.57-1.77.11-1.77-1A3.89,3.89,0,0,1,159.4,148.58Z" transform="translate(-5 -14.67)" style="fill:#fff"/><path d="M70.76,264.65l149.5-86.31a4.64,4.64,0,0,1,4.2,0l7.64,4.41a1.28,1.28,0,0,1,0,2.43L82.58,271.48a4.67,4.67,0,0,1-4.2,0l-7.62-4.41A1.28,1.28,0,0,1,70.76,264.65Z" transform="translate(-5 -14.67)" style="fill:#37474f"/><path d="M90.46,276,240,189.71a4.64,4.64,0,0,1,4.2,0l47,27.16a1.28,1.28,0,0,1,0,2.42l-149.33,86.2a4.66,4.66,0,0,1-4.21,0L90.47,278.44A1.27,1.27,0,0,1,90.46,276Z" transform="translate(-5 -14.67)" style="fill:#263238"/><path d="M224.48,228.55l4.68-2.71c.2-.11.18-.3,0-.43l-5.41-3.12a.83.83,0,0,0-.75,0l-4.68,2.7c-.2.12-.19.31,0,.44l5.41,3.12A.86.86,0,0,0,224.48,228.55Zm-9.24-10.74-4.68,2.7c-.2.11-.19.31,0,.43l5.42,3.13a.81.81,0,0,0,.74,0l4.68-2.7c.2-.12.19-.31,0-.43L216,217.82A.83.83,0,0,0,215.24,217.81Zm-15.12,8.73-7.93,4.57c-.19.12-.18.31,0,.43l5.41,3.13a.83.83,0,0,0,.75,0l7.92-4.57c.2-.11.19-.31,0-.43l-5.42-3.13A.81.81,0,0,0,200.12,226.54Zm8.28-4.78-4.68,2.7c-.2.11-.19.31,0,.43l5.42,3.13a.81.81,0,0,0,.74,0l4.68-2.7c.2-.12.19-.31,0-.43l-5.42-3.13A.81.81,0,0,0,208.4,221.76ZM190,232.36l-4.68,2.7c-.2.12-.18.31,0,.43l5.41,3.13a.83.83,0,0,0,.75,0l4.68-2.7c.2-.11.19-.31,0-.43l-5.41-3.13A.83.83,0,0,0,190,232.36Zm-6.84,3.95-4.68,2.7c-.2.12-.18.31,0,.43l5.41,3.13a.83.83,0,0,0,.75,0l4.68-2.7c.2-.11.19-.31,0-.43l-5.41-3.13A.83.83,0,0,0,183.19,236.31ZM204.48,249l4.68-2.71c.2-.11.19-.3,0-.43l-5.41-3.12a.83.83,0,0,0-.75,0l-4.68,2.7c-.2.12-.19.31,0,.44l5.42,3.12A.84.84,0,0,0,204.48,249ZM197.64,253l4.68-2.71c.2-.11.19-.3,0-.43l-5.42-3.12a.81.81,0,0,0-.74,0l-4.68,2.7c-.2.12-.19.31,0,.44L196.9,253A.84.84,0,0,0,197.64,253Zm-6.84,4,4.68-2.71c.2-.11.19-.3,0-.43L190,250.66a.81.81,0,0,0-.74,0l-4.68,2.7c-.2.12-.19.31,0,.44l5.41,3.12A.86.86,0,0,0,190.8,256.92ZM184,260.87l4.68-2.71c.2-.11.19-.3,0-.43l-5.41-3.12a.83.83,0,0,0-.75,0l-4.68,2.7c-.19.12-.18.31,0,.44l5.41,3.12A.86.86,0,0,0,184,260.87Zm33.67-28.37,4.69-2.71c.19-.11.18-.31,0-.43l-5.41-3.12a.83.83,0,0,0-.75,0l-4.68,2.7c-.2.12-.19.31,0,.43l5.41,3.13A.84.84,0,0,0,217.63,232.5Zm-6.31,12.57,10.45-6c.2-.12.18-.31,0-.43L208.59,231a.81.81,0,0,0-.74,0l-5.4,3.12c-.2.12-.19.31,0,.43l7,4c.22.12.23.32,0,.43l-4.32,2.5c-.2.11-.19.3,0,.43l5.41,3.12A.84.84,0,0,0,211.32,245.07Zm-35-4.81-4.68,2.7c-.2.12-.19.31,0,.43l5.41,3.13a.83.83,0,0,0,.75,0l4.68-2.7c.2-.11.18-.31,0-.43l-5.41-3.13A.83.83,0,0,0,176.35,240.26Zm-6.84,4-4.68,2.7c-.2.12-.19.31,0,.43l5.41,3.13a.83.83,0,0,0,.75,0l4.68-2.7c.2-.11.18-.31,0-.43l-5.41-3.13A.83.83,0,0,0,169.51,244.21ZM135.32,288.5a.83.83,0,0,0,.75,0l4.68-2.7c.2-.11.19-.31,0-.43l-5.42-3.12a.81.81,0,0,0-.74,0l-4.68,2.7c-.2.12-.19.31,0,.43Zm-20.54-12.69-4.68,2.7c-.2.11-.19.31,0,.43l5.41,3.12a.8.8,0,0,0,.75,0l4.68-2.7c.2-.12.18-.31,0-.43l-5.41-3.13A.83.83,0,0,0,114.78,275.81Zm11,9.26a.83.83,0,0,0,.75,0l4.68-2.7c.2-.12.19-.31,0-.43l-5.41-3.13a.83.83,0,0,0-.75,0l-4.68,2.7c-.2.11-.18.31,0,.43Zm21.61,5.83,4.68-2.7c.2-.12.19-.31,0-.43l-5.41-3.13a.83.83,0,0,0-.75,0l-4.68,2.7c-.2.11-.19.31,0,.43l5.41,3.12A.81.81,0,0,0,147.4,290.9Zm-7.58,3.93a.81.81,0,0,0,.74,0l4.68-2.7c.2-.12.19-.31,0-.43l-5.42-3.13a.81.81,0,0,0-.74,0l-4.68,2.7c-.2.11-.19.31,0,.43Zm-18.2-23-4.68,2.7c-.2.11-.18.31,0,.43l5.41,3.13a.83.83,0,0,0,.75,0l4.68-2.7c.2-.12.19-.31,0-.43l-5.41-3.13A.83.83,0,0,0,121.62,271.86Zm34.21-19.75-4.68,2.7c-.2.12-.19.31,0,.43l5.42,3.13a.81.81,0,0,0,.74,0l4.68-2.7c.2-.12.19-.31,0-.43l-5.41-3.13A.83.83,0,0,0,155.83,252.11Zm-27.37,15.8-4.68,2.7c-.2.11-.18.31,0,.43l5.41,3.13a.83.83,0,0,0,.75,0l4.68-2.7c.2-.12.19-.31,0-.43l-5.41-3.13A.83.83,0,0,0,128.46,267.91Zm34.21-19.75-4.68,2.7c-.2.12-.19.31,0,.43l5.41,3.13a.81.81,0,0,0,.74,0l4.69-2.7c.19-.12.18-.31,0-.43l-5.41-3.13A.83.83,0,0,0,162.67,248.16ZM149,256.06l-4.68,2.7c-.2.11-.19.31,0,.43l5.42,3.13a.81.81,0,0,0,.74,0l4.68-2.7c.2-.12.19-.31,0-.43l-5.42-3.13A.81.81,0,0,0,149,256.06ZM142.15,260l-4.68,2.7c-.2.11-.19.31,0,.43l5.41,3.13a.83.83,0,0,0,.75,0l4.68-2.7c.2-.12.19-.31,0-.43L142.89,260A.81.81,0,0,0,142.15,260ZM135.31,264l-4.69,2.7c-.19.11-.18.31,0,.43l5.41,3.13a.83.83,0,0,0,.75,0l4.68-2.7c.2-.12.19-.31,0-.43L136.05,264A.81.81,0,0,0,135.31,264Zm35,4.81,4.68-2.71c.2-.11.18-.31,0-.43l-5.41-3.12a.83.83,0,0,0-.75,0l-4.68,2.7c-.2.12-.19.31,0,.44l5.41,3.12A.86.86,0,0,0,170.28,268.77Zm60.08-59.69-4.68,2.7c-.2.11-.19.31,0,.43l5.41,3.12a.83.83,0,0,0,.75,0l4.68-2.7c.2-.12.18-.31,0-.43l-5.41-3.13A.83.83,0,0,0,230.36,209.08Zm-8.28,4.78-4.68,2.7c-.2.11-.19.31,0,.43l5.41,3.13a.81.81,0,0,0,.74,0l4.69-2.7c.19-.12.18-.31,0-.43l-5.41-3.13A.83.83,0,0,0,222.08,213.86Zm15.12-8.73-4.68,2.7c-.2.11-.19.31,0,.43l5.41,3.12a.8.8,0,0,0,.75,0l4.68-2.7c.2-.12.19-.31,0-.43L238,205.14A.83.83,0,0,0,237.2,205.13Zm-35.41,36.51,4.68-2.7c.2-.12.19-.31,0-.43L201,235.38a.81.81,0,0,0-.74,0l-4.68,2.7c-.2.12-.19.31,0,.43l5.42,3.13A.81.81,0,0,0,201.79,241.64Zm43-40.45a.83.83,0,0,0-.75,0l-4.68,2.7c-.2.11-.18.31,0,.43l5.41,3.13a.83.83,0,0,0,.75,0l4.68-2.7c.2-.12.19-.31,0-.43Zm-67.67,63.63,4.68-2.71c.2-.11.19-.3,0-.43l-5.41-3.12a.83.83,0,0,0-.75,0l-4.68,2.7c-.2.12-.18.31,0,.43l5.41,3.13A.86.86,0,0,0,177.12,264.82ZM261,216.38l4.68-2.7c.2-.12.19-.31,0-.43l-5.42-3.13a.81.81,0,0,0-.74,0l-4.68,2.7c-.2.11-.19.31,0,.43l5.42,3.12A.81.81,0,0,0,261,216.38Zm-14.57-.52,4.68-2.7c.2-.11.19-.31,0-.43l-5.41-3.12a.83.83,0,0,0-.75,0l-4.68,2.7c-.2.12-.18.31,0,.43l5.41,3.13A.83.83,0,0,0,246.44,215.86Zm6.08-10.2a.81.81,0,0,0-.74,0l-4.69,2.7c-.19.12-.18.31,0,.43l5.41,3.13a.83.83,0,0,0,.75,0l4.68-2.7c.2-.11.19-.31,0-.43Zm1.44-.84,13.15,7.59a.81.81,0,0,0,.74,0l4.68-2.7c.2-.12.19-.31,0-.43l-13.15-7.59a.81.81,0,0,0-.74,0l-4.68,2.7C253.74,204.51,253.75,204.7,254,204.82Zm-15.87,8.72-4.68,2.7c-.2.12-.18.31,0,.43l5.41,3.13a.83.83,0,0,0,.75,0l4.68-2.7c.2-.11.19-.31,0-.43l-5.41-3.12A.83.83,0,0,0,238.09,213.54ZM186.6,243.27l-4.68,2.7c-.2.11-.18.31,0,.43l5.41,3.13a.83.83,0,0,0,.75,0l4.68-2.7c.2-.12.19-.31,0-.43l-5.41-3.13A.83.83,0,0,0,186.6,243.27Zm66.83-23a.81.81,0,0,0,.74,0l4.68-2.7c.2-.12.19-.31,0-.43l-5.42-3.13a.84.84,0,0,0-.74,0L248,216.76c-.2.11-.19.31,0,.43Zm-60,19-4.69,2.7c-.19.12-.18.31,0,.43l5.41,3.13a.83.83,0,0,0,.75,0l4.68-2.7c.2-.12.19-.31,0-.43l-5.41-3.13A.81.81,0,0,0,193.45,239.32Zm-51.28,45.23a.81.81,0,0,0,.74,0l4.68-2.7c.2-.11.19-.31,0-.43l-5.42-3.12a.81.81,0,0,0-.74,0l-4.68,2.7c-.2.12-.19.31,0,.43Zm-10.29-9.68-4.69,2.7c-.19.11-.18.31,0,.43l5.41,3.12a.83.83,0,0,0,.75,0l4.68-2.7c.2-.12.19-.31,0-.43l-5.41-3.13A.81.81,0,0,0,131.88,274.87Zm17.87,5.74,4.68-2.7c.2-.11.19-.31,0-.43L149,274.36a.83.83,0,0,0-.75,0l-4.68,2.7c-.2.12-.19.31,0,.43L149,280.6A.81.81,0,0,0,149.75,280.61Zm6.84-3.95,4.69-2.7c.19-.11.18-.31,0-.43l-5.41-3.12a.83.83,0,0,0-.75,0l-4.68,2.7c-.2.12-.19.31,0,.43l5.41,3.13A.81.81,0,0,0,156.59,276.66Zm6.85-4,4.68-2.7c.2-.11.18-.31,0-.43l-5.41-3.12a.83.83,0,0,0-.75,0l-4.68,2.7c-.2.12-.19.31,0,.43l5.41,3.13A.83.83,0,0,0,163.44,272.71Zm-24.72-1.79-4.68,2.7c-.2.11-.19.31,0,.43l5.41,3.12a.83.83,0,0,0,.75,0l4.68-2.7c.2-.12.19-.31,0-.43l-5.42-3.13A.81.81,0,0,0,138.72,270.92Zm6.84-3.95-4.68,2.7c-.2.11-.19.31,0,.43l5.42,3.12a.81.81,0,0,0,.74,0l4.68-2.7c.2-.12.19-.31,0-.43L146.3,267A.81.81,0,0,0,145.56,267Zm27.36-15.8-4.68,2.7c-.2.11-.19.31,0,.43l5.41,3.13a.83.83,0,0,0,.75,0l4.68-2.7c.2-.12.18-.31,0-.43l-5.41-3.13A.83.83,0,0,0,172.92,251.17Zm-6.84,4-4.68,2.7c-.2.11-.19.31,0,.43l5.41,3.13a.83.83,0,0,0,.75,0l4.68-2.7c.2-.12.18-.31,0-.43l-5.41-3.13A.83.83,0,0,0,166.08,255.12Zm13.68-7.9-4.68,2.7c-.2.11-.18.31,0,.43l5.41,3.13a.83.83,0,0,0,.75,0l4.68-2.7c.2-.12.19-.31,0-.43l-5.41-3.13A.83.83,0,0,0,179.76,247.22ZM152.4,263l-4.68,2.7c-.2.11-.19.31,0,.43l5.42,3.12a.78.78,0,0,0,.74,0l4.68-2.7c.2-.12.19-.31,0-.43L153.15,263A.83.83,0,0,0,152.4,263Zm6.84-3.95-4.68,2.7c-.2.11-.19.31,0,.43l5.41,3.13a.81.81,0,0,0,.74,0l4.69-2.7c.19-.12.18-.31,0-.43L160,259.08A.83.83,0,0,0,159.24,259.07Zm-5,27.88,4.68-2.7c.2-.12.18-.31,0-.43l-5.41-3.13a.83.83,0,0,0-.75,0l-4.68,2.7c-.2.11-.19.31,0,.43l5.41,3.12A.83.83,0,0,0,154.25,287ZM114.1,282.9l-5.41-3.13a.83.83,0,0,0-.75,0l-4.68,2.7c-.2.11-.19.31,0,.43L108.7,286a.83.83,0,0,0,.75,0l4.68-2.7C114.32,283.21,114.31,283,114.1,282.9Zm10.25,3-5.41-3.13a.83.83,0,0,0-.75,0l-7.2,4.15c-.2.12-.19.31,0,.43l5.41,3.13a.83.83,0,0,0,.75,0l7.2-4.15C124.58,286.22,124.57,286,124.35,285.91Zm-18.55-9.06-5.42-3.12a.84.84,0,0,0-.74,0L93.88,277c-.2.12-.19.31,0,.43l5.41,3.13a.83.83,0,0,0,.75,0l5.76-3.32C106,277.17,106,277,105.8,276.85Zm4.41-2.55a.83.83,0,0,0,.75,0l4.68-2.7c.2-.12.19-.31,0-.43l-5.41-3.13a.83.83,0,0,0-.75,0l-4.68,2.7c-.2.11-.18.31,0,.43Zm23.67,15-5.41-3.13a.84.84,0,0,0-.74,0l-9,5.2c-.2.11-.18.3,0,.43l5.41,3.12a.83.83,0,0,0,.75,0l9-5.2C134.11,289.65,134.1,289.45,133.88,289.33Zm4.5,6.34L133,292.54a.84.84,0,0,0-.74,0l-5.76,3.33c-.2.12-.19.31,0,.43l5.41,3.13a.83.83,0,0,0,.75,0l5.76-3.32C138.6,296,138.59,295.79,138.38,295.67Zm22.7-50.73a.81.81,0,0,0,.74,0l4.68-2.7c.2-.11.19-.31,0-.43l-5.41-3.12a.8.8,0,0,0-.75,0l-4.68,2.7c-.2.12-.19.31,0,.43Zm-13.69,7.9a.83.83,0,0,0,.75,0l4.68-2.7c.2-.11.19-.31,0-.43l-5.42-3.13a.81.81,0,0,0-.74,0l-4.68,2.7c-.2.12-.19.31,0,.43Zm-30.34,17.51a.8.8,0,0,0,.75,0l4.68-2.7c.2-.12.19-.31,0-.43L117,264.11a.83.83,0,0,0-.75,0l-4.68,2.7c-.19.11-.18.31,0,.43Zm37.19-21.46a.81.81,0,0,0,.74,0l4.68-2.7c.2-.11.19-.31,0-.43l-5.42-3.13a.81.81,0,0,0-.74,0l-4.68,2.7c-.2.12-.19.31,0,.43Zm-13.69,7.9a.83.83,0,0,0,.75,0l4.68-2.7c.2-.11.19-.31,0-.43l-5.41-3.13a.81.81,0,0,0-.74,0l-4.69,2.7c-.19.12-.18.31,0,.43Zm1.59,39.38a.83.83,0,0,0-.75,0l-7.2,4.16c-.2.11-.19.3,0,.43l5.42,3.12a.84.84,0,0,0,.74,0l7.2-4.16c.2-.12.19-.31,0-.43Zm-11.4-33.71a.81.81,0,0,0,.74,0l4.68-2.7c.2-.12.19-.31,0-.43l-5.42-3.13a.81.81,0,0,0-.74,0l-4.68,2.7c-.2.11-.19.31,0,.43Zm-6.85,4a.83.83,0,0,0,.75,0l4.68-2.7c.2-.12.19-.31,0-.43l-5.42-3.13a.81.81,0,0,0-.74,0l-4.68,2.7c-.2.11-.19.31,0,.43Zm145-43.41a.86.86,0,0,0-.75,0l-11.52,6.66c-.2.11-.19.3,0,.43l5.41,3.12a.86.86,0,0,0,.75,0l11.52-6.66c.2-.11.18-.3,0-.43Zm-15.13,8.73a.84.84,0,0,0-.74,0l-4.68,2.71c-.2.11-.19.3,0,.43l5.42,3.12a.81.81,0,0,0,.74,0l4.68-2.7c.2-.12.19-.31,0-.44ZM161.09,283l4.68-2.7c.2-.12.18-.31,0-.43l-5.41-3.13a.83.83,0,0,0-.75,0l-4.68,2.7c-.2.11-.19.31,0,.43l5.41,3.12A.83.83,0,0,0,161.09,283Zm79-43.37a.84.84,0,0,0-.74,0l-4.68,2.71c-.2.11-.19.3,0,.43l5.41,3.12a.83.83,0,0,0,.75,0l4.68-2.7c.2-.12.19-.31,0-.44Zm35.65-20.58a.86.86,0,0,0-.75,0l-4.68,2.71c-.2.11-.19.3,0,.43l5.41,3.12a.83.83,0,0,0,.75,0l4.68-2.71c.2-.11.18-.3,0-.43Zm12.25-.83-13.14-7.59a.83.83,0,0,0-.75,0l-4.68,2.7c-.2.12-.19.31,0,.43l13.14,7.59a.83.83,0,0,0,.75,0l4.68-2.71C288.2,218.54,288.19,218.35,288,218.22Zm-73.46,36.17a.86.86,0,0,0-.75,0L208,257.7c-.2.11-.19.31,0,.43l5.41,3.13a.83.83,0,0,0,.75,0l5.76-3.33c.2-.11.18-.3,0-.43Zm17.28-10a.83.83,0,0,0-.75,0l-7.2,4.15c-.2.12-.18.31,0,.43l5.41,3.13a.83.83,0,0,0,.75,0l7.2-4.15c.2-.12.19-.31,0-.43Zm-33.12,19.13a.83.83,0,0,0-.75,0l-38.53,22.24c-.2.12-.18.31,0,.43l5.41,3.13a.83.83,0,0,0,.75,0l38.52-22.24c.2-.11.19-.31,0-.43ZM158,287a.83.83,0,0,0-.75,0l-5.76,3.33c-.2.11-.19.3,0,.43l5.41,3.12a.83.83,0,0,0,.75,0l5.76-3.33c.2-.11.18-.31,0-.43ZM206.59,259a.83.83,0,0,0-.75,0l-5.76,3.32c-.2.12-.19.31,0,.43l5.41,3.13a.83.83,0,0,0,.75,0l5.76-3.32c.19-.12.18-.31,0-.43ZM150.06,291.6a.86.86,0,0,0-.75,0l-5.76,3.33c-.2.12-.19.31,0,.43l5.41,3.13a.83.83,0,0,0,.75,0l5.76-3.32c.19-.12.18-.31,0-.44Zm72.37-41.78a.8.8,0,0,0-.75,0l-5.76,3.33c-.2.11-.19.3,0,.43l5.41,3.12a.83.83,0,0,0,.75,0l5.76-3.33c.2-.11.19-.31,0-.43Zm24.48-14.14a.84.84,0,0,0-.74,0l-4.68,2.71c-.2.11-.19.3,0,.43l5.42,3.12a.81.81,0,0,0,.74,0l4.68-2.7c.2-.12.19-.31,0-.44Zm15-10.89,4.68-2.7c.2-.11.19-.31,0-.43l-5.41-3.13a.83.83,0,0,0-.75,0l-4.68,2.7c-.2.12-.19.31,0,.43l5.42,3.13A.81.81,0,0,0,261.9,224.79Zm-30.58-.19,4.68-2.71c.2-.11.18-.3,0-.43l-5.41-3.12a.83.83,0,0,0-.75,0l-4.68,2.7c-.2.12-.19.31,0,.44l5.41,3.12A.86.86,0,0,0,231.32,224.6Zm-15.5,26.8,13.68-7.9c.2-.11.19-.31,0-.43L224.06,240a.83.83,0,0,0-.75,0l-13.68,7.9c-.2.12-.19.31,0,.43l5.41,3.13A.83.83,0,0,0,215.82,251.4Zm38.5-22.67a.81.81,0,0,0,.74,0l4.68-2.7c.2-.11.19-.31,0-.43l-5.42-3.13a.81.81,0,0,0-.74,0l-4.68,2.7c-.2.12-.19.31,0,.43Zm-7-4.45,4.68-2.7c.2-.12.19-.31,0-.43L246.57,218a.84.84,0,0,0-.74,0l-4.68,2.71c-.2.11-.19.3,0,.43l5.41,3.12A.83.83,0,0,0,247.33,224.28ZM209,255.35l4.69-2.7c.19-.12.18-.31,0-.43l-5.41-3.13a.83.83,0,0,0-.75,0l-4.68,2.7c-.2.12-.19.31,0,.43l5.41,3.13A.81.81,0,0,0,209,255.35Zm30.22-17.89a.83.83,0,0,0,.75,0l4.68-2.7c.2-.11.19-.31,0-.43l-5.41-3.12a.81.81,0,0,0-.74,0l-4.69,2.7c-.19.12-.18.31,0,.43ZM174.77,275.1l4.68-2.7c.2-.12.19-.31,0-.43L174,268.84a.83.83,0,0,0-.75,0l-4.68,2.7c-.2.11-.18.31,0,.43l5.41,3.12A.8.8,0,0,0,174.77,275.1Zm6.84-4,4.68-2.7c.2-.12.19-.31,0-.43l-5.41-3.13a.81.81,0,0,0-.74,0l-4.69,2.7c-.19.11-.18.31,0,.43l5.41,3.13A.83.83,0,0,0,181.61,271.15Zm-13.68,7.9,4.68-2.7c.2-.12.19-.31,0-.43l-5.41-3.13a.83.83,0,0,0-.75,0l-4.68,2.7c-.2.11-.18.31,0,.43l5.41,3.13A.86.86,0,0,0,167.93,279.05Zm27.36-15.8,4.68-2.7c.2-.12.19-.31,0-.43L194.53,257a.81.81,0,0,0-.74,0l-4.68,2.7c-.2.11-.19.31,0,.43l5.42,3.13A.81.81,0,0,0,195.29,263.25Zm-6.84,3.95,4.68-2.7c.2-.12.19-.31,0-.43l-5.42-3.13a.81.81,0,0,0-.74,0l-4.68,2.7c-.2.11-.19.31,0,.43l5.41,3.13A.83.83,0,0,0,188.45,267.2Zm13.68-7.9,4.68-2.7c.2-.12.19-.31,0-.43L201.38,253a.83.83,0,0,0-.75,0l-4.68,2.7c-.2.11-.19.31,0,.43l5.42,3.13A.81.81,0,0,0,202.13,259.3Zm31.3-58.43a.86.86,0,0,0,.75,0l4.68-2.71c.2-.11.19-.3,0-.43l-1.44-.83a.81.81,0,0,0-.74,0l-4.69,2.7c-.19.11-.18.31,0,.43ZM199.77,222.6a.83.83,0,0,0,.75,0l4.68-2.7c.2-.11.19-.31,0-.43l-5.41-3.13a.83.83,0,0,0-.75,0l-4.68,2.7c-.2.12-.18.31,0,.43Zm13.68-7.9a.83.83,0,0,0,.75,0l4.68-2.7c.2-.11.19-.31,0-.43l-5.41-3.13a.81.81,0,0,0-.74,0l-4.69,2.7c-.19.12-.18.31,0,.43Zm-22,12.72a.84.84,0,0,0,.74,0l4.69-2.71c.19-.11.18-.3,0-.43l-5.41-3.12a.83.83,0,0,0-.75,0l-4.68,2.7c-.2.12-.19.31,0,.44Zm15.19-8.77a.83.83,0,0,0,.75,0L212,216c.2-.11.19-.31,0-.43l-5.41-3.13a.83.83,0,0,0-.75,0l-4.68,2.7c-.2.12-.18.31,0,.43Zm-28.87,16.67a.84.84,0,0,0,.74,0l4.68-2.71c.2-.11.19-.31,0-.43l-5.42-3.12a.81.81,0,0,0-.74,0l-4.68,2.7c-.2.12-.19.31,0,.44Zm6.84-3.95a.84.84,0,0,0,.74,0l4.68-2.71c.2-.11.19-.3,0-.43l-5.41-3.12a.83.83,0,0,0-.75,0l-4.68,2.7c-.2.12-.19.31,0,.44Zm35.17-22.6a.86.86,0,0,0,.75,0l4.68-2.71c.2-.11.18-.3,0-.43l-1.44-.83a.86.86,0,0,0-.75,0l-4.68,2.71c-.2.11-.19.31,0,.43Zm20.52-11.85a.86.86,0,0,0,.75,0l4.68-2.71c.2-.11.19-.3,0-.43l-1.44-.83a.81.81,0,0,0-.74,0l-4.68,2.7c-.2.11-.19.31,0,.43Zm11.37,6.57a.83.83,0,0,0,.75,0l4.68-2.7c.2-.12.19-.31,0-.43l-5.41-3.13a.83.83,0,0,0-.75,0l-4.68,2.7c-.2.11-.18.31,0,.43Zm17.1,17.35,4.69-2.7c.19-.11.18-.31,0-.43L268,214.58a.83.83,0,0,0-.75,0l-4.68,2.7c-.2.12-.19.31,0,.43l5.41,3.13A.81.81,0,0,0,268.74,220.84Zm-42.15-16a.86.86,0,0,0,.75,0l4.68-2.71c.2-.11.18-.3,0-.43l-1.44-.83a.83.83,0,0,0-.75,0l-4.68,2.7c-.2.11-.18.31,0,.43Zm-55.7,34.45a.86.86,0,0,0,.75,0l4.68-2.71c.2-.11.19-.31,0-.43L170.88,233a.81.81,0,0,0-.74,0l-4.68,2.7c-.2.12-.19.31,0,.43Z" transform="translate(-5 -14.67)" style="fill:#455a64"/><path d="M201.23,280.33l46.19-26.67a5.61,5.61,0,0,1,5.05,0L279,269c1.39.8,1.39,2.1,0,2.91l-46.19,26.67a5.59,5.59,0,0,1-5,0l-26.49-15.3C199.84,282.44,199.84,281.14,201.23,280.33Z" transform="translate(-5 -14.67)" style="fill:#263238"/><path d="M279.39,150.14h0l-.06,0-7.89-4.55c-.45-.2-1.12,0-1.93.6-7.34,5.62-17.2,7.36-25.26,4.8a19.47,19.47,0,0,1-1.48-1.53l-.14-.17h0a3.41,3.41,0,0,0-.82-.67l-.14-.08L233.78,144c-.9-.42-1.72,0-2.26,1.34-7.63,18.95-23.88,38.15-34.72,42.95a6.14,6.14,0,0,0-2.13,1.59,4.54,4.54,0,0,0-1.2,3.11L195,235.5c0,12.29,5.19,25.27,15.77,31.59l8.17,4.72.15.07a28.68,28.68,0,0,0,14.47,3.68c1.14,0,2.29-.05,3.49-.16a11.75,11.75,0,0,0,6.17-3.09c23.68-24.46,35.2-57.56,35.2-75.88l1.56-44.5C280.05,151,279.81,150.38,279.39,150.14Z" transform="translate(-5 -14.67)" style="fill:orange"/><path d="M280,151.93l-1.56,44.5c0,18.32-11.52,51.42-35.2,75.88a11.75,11.75,0,0,1-6.17,3.09c-1.2.11-2.35.16-3.49.16a28.68,28.68,0,0,1-14.47-3.68l-.15-.07-.28-.18c-10.58-6.31-15.77-19.29-15.77-31.59l-1.57-42.54a4.51,4.51,0,0,1,1.21-3.1,6.17,6.17,0,0,1,2.13-1.6c10.84-4.8,27.09-24,34.71-43,.55-1.34,1.37-1.77,2.27-1.35h0l.14.08a3.41,3.41,0,0,1,.82.67h0l.14.17c8.09,9.42,24,9.41,34.63,1.28.8-.61,1.47-.81,1.93-.6l.06,0h0C279.81,150.38,280.05,151,280,151.93Z" transform="translate(-5 -14.67)" style="fill:orange"/><path d="M279.34,150.09c-.45-.2-1.12,0-1.93.6-10,7.66-24.7,8.11-33.13.25,8.06,2.58,17.91.83,25.24-4.79.81-.61,1.48-.8,1.93-.6Z" transform="translate(-5 -14.67)" style="fill:#fff;opacity:0.4"/><path d="M241.68,148.5c-.9-.43-1.73,0-2.27,1.35-7.63,19-23.88,38.15-34.72,43a6.14,6.14,0,0,0-2.13,1.59,4.91,4.91,0,0,0-.54.75l-7.88-4.55a4.76,4.76,0,0,1,.53-.74,4,4,0,0,1,.35-.36h0l.14-.13a1.59,1.59,0,0,0,.13-.13,5.69,5.69,0,0,1,1.51-1c10.83-4.8,27.08-24,34.71-42.95.54-1.34,1.36-1.77,2.26-1.34Z" transform="translate(-5 -14.67)" style="fill:#fff;opacity:0.4"/><path d="M195,189.47a.53.53,0,0,1,.14-.12l-.14.13S195,189.47,195,189.47Z" transform="translate(-5 -14.67)" style="fill:orange"/><path d="M195.17,189.35l-.14.13s0,0,0,0A.53.53,0,0,1,195.17,189.35Z" transform="translate(-5 -14.67)" style="opacity:0.15"/><path d="M219.12,271.88l-.14-.07-8.17-4.72C200.22,260.77,195,247.79,195,235.5L193.47,193a4.15,4.15,0,0,1,.67-2.36l7.88,4.55a4.21,4.21,0,0,0-.66,2.35L202.92,240c0,12.29,5.19,25.27,15.77,31.59l.29.17Z" transform="translate(-5 -14.67)" style="opacity:0.15"/><path d="M247,232.74,234.38,240l2-22.81c-1.51-.8-2.47-2.76-2.47-5.58,0-5,3-10.86,6.82-13s6.82.13,6.82,5.15a17.12,17.12,0,0,1-2.47,8.43Z" transform="translate(-5 -14.67)" style="fill:#455a64"/><polygon points="241.99 218.06 230.56 211.47 229.38 225.34 241.99 218.06" style="fill:#37474f"/><path d="M240.68,198.6c-2.46,1.42-4.62,4.41-5.81,7.72L245,212.19h0a17.12,17.12,0,0,0,2.47-8.43C247.5,198.73,244.45,196.42,240.68,198.6Z" transform="translate(-5 -14.67)" style="fill:#37474f"/><path d="M366.86,242.79c-4.08,6.89-8,12.88-10.75,15.74-5.23,2.44-17.51,6.17-22.31,6.8a3.58,3.58,0,0,1-2.41-.57c-1.89-1.24-3.35-1.44-5.34-2.13-1.56-.54-2.23-1.28-2.52-1a1.79,1.79,0,0,0,.16,2.47,13,13,0,0,0,2.47,1.85,14.69,14.69,0,0,1-6.5.11c-4.16-1.09-6.13.91-3.31,5.42,1,1.62,5,4.21,13,3.51a70.26,70.26,0,0,0,8.54-1c7.71-1.64,16.27-3.24,21.54-4.81a13.71,13.71,0,0,0,5.12-3.55c8.86-10.1,11.8-17.3,15.68-23.84l-.33-10.69C373.63,230.9,370.27,237,366.86,242.79Z" transform="translate(-5 -14.67)" style="fill:#ffa8a7"/><path d="M381,230.9a10.12,10.12,0,0,0-9.61,4.11c-4.31,5.52-11.94,18.77-11.94,18.77s2.51,6.65,9.24,7.74l10.81-14.61S384.62,236.8,381,230.9Z" transform="translate(-5 -14.67)" style="fill:#455a64"/><rect x="392.32" y="365.21" width="7.05" height="12.57" style="fill:#ffa8a7"/><polygon points="374.93 364.54 367.88 364.79 367.53 351.49 374.93 351.23 374.93 364.54" style="fill:#ffa8a7"/><path d="M405.37,271c0,7-1,63.45-1,63.45.16,2,2,5.74,1.58,13.49-.53,10.52-1.24,38.19-1.24,38.19a9,9,0,0,1-7.85.16s-5.72-38.77-7-49.2c-1.11-9.11-3.93-39.31-3.93-39.31l-3.82,35.64a43.31,43.31,0,0,1,.87,11.67c-.33,4.83-2.59,30-2.59,30a9.3,9.3,0,0,1-8.15.65s-4-37.85-4.09-42.28c-.09-5,2.35-62.5,2.35-62.5Z" transform="translate(-5 -14.67)" style="fill:#37474f"/><path d="M397.32,388.83v-1.05c-.67.31-2.24,6.54-5,9.19-2.22,2.12-5.25,4.56-6,6.91s4.22,3.8,6.3,3.42c2.41-.44,6.6-2.22,7.65-3.86s1.54-4.06,2.39-5.26,2.82-2.55,3.29-3.94a9.28,9.28,0,0,0-.41-3.86c-.32-1.29-.68-2.72-1.1-2.6,0,.16,0,.8,0,.8a5.45,5.45,0,0,1-3.53,1.24C399.82,389.86,397.32,389.65,397.32,388.83Z" transform="translate(-5 -14.67)" style="fill:#263238"/><path d="M372.81,377.2c-.37,0-.67.55-1.47,1.46a15.59,15.59,0,0,1-4.15,3.11c-2.64,1.38-7.78,3.49-10.1,4.58-1.45.69-1.38,2.51.12,3.55s5.12,1.79,9.47.78c2.37-.56,5.45-2.84,7.41-2.71s5.6.09,7-.94.86-3.25.46-5.15c-.45-2.07-1-5.3-1.66-5.16v.72c-.85,1.33-5.22,1.88-7.09.89Z" transform="translate(-5 -14.67)" style="fill:#263238"/><path d="M385.92,297.82A25.85,25.85,0,0,1,376.1,292s1.9,3.7,7.53,7.14l-1.2,31.83Z" transform="translate(-5 -14.67)" style="fill:#263238"/><path d="M401.42,232s5.8,1.34,5.41,11.85l-1.22,16.75,0,25.12c-5.18,5.88-28.17,5.45-36-.47,0,0,.89-29.73,1.42-41.17.38-8.14,2.25-12.23,10.25-13.13l9.83.43Z" transform="translate(-5 -14.67)" style="fill:#6eb1d6"/><path d="M394,210.1A10.72,10.72,0,0,1,383.52,221c-5.8,0-9.23-5-10.5-10.93-2.32-10.8,4.7-10.94,10.5-10.94A10.73,10.73,0,0,1,394,210.1Z" transform="translate(-5 -14.67)" style="fill:#263238"/><path d="M399.37,214.52s-1.61,7.88-2.26,9.17a3.43,3.43,0,0,1-2,1.67l.12-5.55Z" transform="translate(-5 -14.67)" style="fill:#263238"/><path d="M397.35,203.23s1.15-.28,2.38,1.63c1,1.64,1.29,5.33-.36,9.66l-3,.36Z" transform="translate(-5 -14.67)" style="fill:#263238"/><path d="M398.46,204.83l3.72.07a1.76,1.76,0,0,0-1.69-2A2.06,2.06,0,0,0,398.46,204.83Z" transform="translate(-5 -14.67)" style="fill:#263238"/><path d="M398.92,204l2.75-2.65a1.77,1.77,0,0,0-2.61-.1A2,2,0,0,0,398.92,204Z" transform="translate(-5 -14.67)" style="fill:#263238"/><path d="M395.43,214.89c.6.37,1.47-.84,2.22-1.66s3.11-1.59,4.33,1.09-.86,5.33-2.61,6.2c-3.13,1.56-4.12-.71-4.12-.71L395,232.29c-4.41,6.82-14.4,6.58-10.8-.33v-3.79a20,20,0,0,1-4.47.23c-2.45-.39-4-2.4-4.72-5.15-1.19-4.42-1.65-8-.64-16.69,1.11-9.54,11.76-9.64,17.51-5.87S395.43,214.89,395.43,214.89Z" transform="translate(-5 -14.67)" style="fill:#ffa8a7"/><path d="M382.15,205.07c2.55-.26,5.06-.78,7.61-1a4.8,4.8,0,0,1,1.65.08c1.95.52,1.7,2.79,2,4.38.53,2.73,1,7.36,2,7.38.3,0,1.46-2,2.22-2.72a4,4,0,0,0,.68-2.09c.19-1.13.3-2.28.39-3.42.07-1,.17-1.95.16-2.93a13.18,13.18,0,0,0-.25-3.26,5.77,5.77,0,0,0-1.36-2.45l-.2-.21a12.85,12.85,0,0,0-4.55-3.07,27.67,27.67,0,0,0-7.7-1.67,79,79,0,0,1-7.85-.95.9.9,0,0,0-.46,0,.76.76,0,0,0-.37.59,3.22,3.22,0,0,0,1.32,3.19c-1.76.14-3.78-.77-5.47-1.23a1.11,1.11,0,0,0-.86,0,.84.84,0,0,0-.34.5,3.15,3.15,0,0,0-.05,1.4,8.13,8.13,0,0,0,1.51,3.86,9.51,9.51,0,0,0,5.25,3.43A15.41,15.41,0,0,0,382.15,205.07Z" transform="translate(-5 -14.67)" style="fill:#263238"/><path d="M384.19,228.16s5.46-1.14,7.36-2.19a6.48,6.48,0,0,0,2.64-2.72,9.18,9.18,0,0,1-1.5,3.2c-1.39,1.86-8.5,3.23-8.5,3.23Z" transform="translate(-5 -14.67)" style="fill:#f28f8f"/><path d="M385.5,213.47a1.14,1.14,0,0,0,1.1,1.18,1.16,1.16,0,0,0,1.09-1.19,1.1,1.1,0,1,0-2.19,0Z" transform="translate(-5 -14.67)" style="fill:#263238"/><path d="M387.26,208.75l2.34,1.35a1.5,1.5,0,0,0-.55-1.94A1.27,1.27,0,0,0,387.26,208.75Z" transform="translate(-5 -14.67)" style="fill:#263238"/><path d="M384.69,221.33l-2.5,1a1.3,1.3,0,0,0,1.7.86A1.47,1.47,0,0,0,384.69,221.33Z" transform="translate(-5 -14.67)" style="fill:#f28f8f"/><path d="M375.48,209.76l2.13-1.71a1.25,1.25,0,0,0-1.85-.3A1.52,1.52,0,0,0,375.48,209.76Z" transform="translate(-5 -14.67)" style="fill:#263238"/><path d="M376.42,213.14a1.09,1.09,0,1,0,1.09-1.18A1.13,1.13,0,0,0,376.42,213.14Z" transform="translate(-5 -14.67)" style="fill:#263238"/><polygon points="377.26 197.55 377.14 204.46 373.22 203.56 377.26 197.55" style="fill:#f28f8f"/><polyline points="284.19 255.32 290.27 251.82 292.68 248.9 286.6 252.41 284.19 255.32" style="fill:orange"/><polyline points="284.19 255.32 290.27 251.82 292.68 248.9 286.6 252.41 284.19 255.32" style="opacity:0.4"/><polyline points="300.73 264.87 306.81 261.37 311.89 256.87 305.81 260.38 300.73 264.87" style="fill:orange"/><polyline points="300.73 264.87 306.81 261.37 311.89 256.87 305.81 260.38 300.73 264.87" style="opacity:0.4"/><path d="M357.4,291.67a13,13,0,0,1,2.52,6.62A13,13,0,0,1,357.4,291.67Zm14.13.19c-2-13.93-9.52-27.7-18.44-32.85-4.28-2.47-8.24-2.56-11.41-.71L336,261.6a3.37,3.37,0,0,0-.32.19,8.35,8.35,0,0,0-.74.47,10.31,10.31,0,0,0-1.32,1.09l-.19.18c-.18.18-.36.38-.53.58a8.57,8.57,0,0,0-.6.75,13.28,13.28,0,0,0-1.12,1.71c-.17.3-.34.62-.5.95l-50-28.86-6.08,3.5V246l.52.3.48.28v.82l-1,.58v2.25l7.35,15.54,7.26,4.2,2.41-2.92,6.4,3.83,3.68,6.3,4.05,2.34,5.08-4.5,6.23,3.6,2.1,8.64,10.44,6a57.41,57.41,0,0,0,2,6.5c.07.21.15.43.24.67,3.47,9.13,9,16.94,15.22,20.54a15.6,15.6,0,0,0,2.34,1.13,11.86,11.86,0,0,0,1.31.44,10.12,10.12,0,0,0,1.16.26,10,10,0,0,0,3.7,0l.51-.12a4.44,4.44,0,0,0,.71-.21l.54-.21a4,4,0,0,0,.56-.26,5.12,5.12,0,0,0,.52-.27l.26-.15a.37.37,0,0,0,.12-.07l5.73-3.3c4.62-2.68,7.61-9.45,7.61-19A49.63,49.63,0,0,0,371.53,291.86Z" transform="translate(-5 -14.67)" style="fill:orange"/><path d="M355.62,303.42c-2.4-1.39-4.34-5.5-4.34-9.19s1.94-5.57,4.34-4.18,4.34,5.5,4.34,9.19S358,304.8,355.62,303.42Zm9.84-8.06c-2-13.92-9.53-27.69-18.44-32.84-4.13-2.38-7.95-2.56-11.06-.92a3.37,3.37,0,0,0-.32.19,8.35,8.35,0,0,0-.74.47,10.31,10.31,0,0,0-1.32,1.09l-.19.18c-.18.18-.36.38-.53.58a8.57,8.57,0,0,0-.6.75,13.28,13.28,0,0,0-1.12,1.71c-.17.3-.34.62-.5.95a23.9,23.9,0,0,0-1.93,5.9l-54.13-31.26V246l.52.3.48.28v.82l-1,.58v2.25l7.35,15.54,7.26,4.2,2.41-2.92,6.4,3.83,3.68,6.3,4.05,2.34,5.08-4.5,6.23,3.6,2.1,8.64,10.44,6a57.41,57.41,0,0,0,2,6.5c.07.21.15.43.24.67,3.47,9.13,9,16.94,15.22,20.54a15.6,15.6,0,0,0,2.34,1.13,11.86,11.86,0,0,0,1.31.44,10.12,10.12,0,0,0,1.16.26,10,10,0,0,0,3.7,0l.51-.12a4.44,4.44,0,0,0,.71-.21l.54-.21a4,4,0,0,0,.56-.26,5.12,5.12,0,0,0,.52-.27l.26-.15a.37.37,0,0,0,.12-.07c4.42-2.79,7.27-9.47,7.27-18.81A51.26,51.26,0,0,0,365.46,295.36Z" transform="translate(-5 -14.67)" style="fill:orange"/><path d="M360,299.24c0,3.69-1.94,5.56-4.34,4.18s-4.34-5.5-4.34-9.19,1.94-5.57,4.34-4.18a6.16,6.16,0,0,1,1.78,1.63,13.12,13.12,0,0,0,2.51,6.61A7.66,7.66,0,0,1,360,299.24Z" transform="translate(-5 -14.67)" style="opacity:0.4"/><path d="M372.09,299.23c0,9.57-3,16.34-7.61,19l-5.73,3.3c4.42-2.79,7.27-9.47,7.27-18.81a51.26,51.26,0,0,0-.56-7.38c-2-13.92-9.53-27.69-18.44-32.84-4.13-2.38-7.95-2.56-11.06-.92l5.72-3.3c3.17-1.85,7.13-1.76,11.41.71,8.92,5.15,16.4,18.92,18.44,32.85A49.63,49.63,0,0,1,372.09,299.23Z" transform="translate(-5 -14.67)" style="fill:#fff;opacity:0.4"/><path d="M366,302.74c0,9.34-2.85,16-7.27,18.81l5.73-3.3c4.62-2.68,7.61-9.45,7.61-19,0-.36,0-.71,0-1.07L366,301.67C366,302,366,302.38,366,302.74Z" transform="translate(-5 -14.67)" style="fill:orange"/><path d="M366,302.74c0,9.34-2.85,16-7.27,18.81l5.73-3.3c4.62-2.68,7.61-9.45,7.61-19,0-.36,0-.71,0-1.07L366,301.67C366,302,366,302.38,366,302.74Z" transform="translate(-5 -14.67)" style="opacity:0.1"/><polygon points="323.93 262.74 323.93 264.71 269.58 233.34 270.58 232.76 270.58 231.94 323.93 262.74" style="opacity:0.15"/><polygon points="323.93 263.56 323.93 264.71 269.58 233.34 270.58 232.76 270.58 232.75 323.93 263.56" style="opacity:0.15"/><ellipse cx="347.02" cy="291.76" rx="14.35" ry="26.85" transform="translate(-75.34 100) rotate(-17.06)" style="fill:none;stroke:#000;stroke-miterlimit:10;stroke-width:0.9702005386352539px;opacity:0.15"/><path d="M330.64,267.52a23.9,23.9,0,0,0-1.93,5.9l-54.13-31.26,6.08-3.5Z" transform="translate(-5 -14.67)" style="fill:#fff;opacity:0.4"/><path d="M401,270.56c2.84-5.37,6.07-17.42,7.69-23.5,2.28-8.64-1.42-14.07-5.62-14.29-2.64.4-11.3,31.91-11.3,31.91-1,.76-14.14,7.44-18.37,9.12a3.28,3.28,0,0,1-2.35,0c-2-.74-3.41-.6-5.4-.8-1.56-.16-2.35-.71-2.55-.38a1.79,1.79,0,0,0,.77,2.3,12.26,12.26,0,0,0,2.71,1.18,16.64,16.64,0,0,1-5.25.72c-4.07-.09-5.54,1.68-2.38,5.8,2,2.59,5.16,3.4,12.32.92,2.07-.71,4.86-2.1,7.46-3,5.39-2,6.77-2.17,10.9-3.56C395.54,274.94,399.69,272.94,401,270.56Z" transform="translate(-5 -14.67)" style="fill:#ffa8a7"/><path d="M401.42,232c2.48.34,4.88.9,6.32,2.9s2.64,4.82,1.2,12.57a119.75,119.75,0,0,1-4.4,16s-5.76,2.47-11.89-3.78l4.21-16.28S397.58,232.77,401.42,232Z" transform="translate(-5 -14.67)" style="fill:#455a64"/><g style="opacity:0.2"><path d="M115.27,21.53h.11l2.37.53a.25.25,0,0,1,.17.12.3.3,0,0,1,0,.21l-1.61,4.34a2.11,2.11,0,0,0,.49,2.08,5.44,5.44,0,0,1,.56.69,1.53,1.53,0,0,0,1.25.67,1.41,1.41,0,0,0,.79-.24l3.14-2.07.06,0s0,0,0,.06l.59,3.43a1.35,1.35,0,0,1-.35,1l-3.15,2.9a3.48,3.48,0,0,0-.95,1.91,20.81,20.81,0,0,1-.38,2.23,1.7,1.7,0,0,0,1,1.92l1.85.79a.39.39,0,0,1,.19.19.36.36,0,0,1,0,.27l-2.15,4.82a.93.93,0,0,1-.76.47h0l-2.28-.12h-.08a2.41,2.41,0,0,0-1.86,1,25,25,0,0,1-1.62,2.14,3.26,3.26,0,0,0-.68,2l.21,3.38a1.43,1.43,0,0,1-.46,1l-3.55,2.79-.07,0a.27.27,0,0,1,0-.08l-.8-2.66a1.36,1.36,0,0,0-1.31-1,1.46,1.46,0,0,0-.57.12A9.64,9.64,0,0,1,104,57a2.9,2.9,0,0,0-1.71,1.3L100,62.54a.74.74,0,0,1-.61.34H99.3l-2.37-.53a.25.25,0,0,1-.17-.12.22.22,0,0,1,0-.21l1.61-4.33a2.15,2.15,0,0,0-.49-2.09,6.13,6.13,0,0,1-.56-.68,1.55,1.55,0,0,0-1.25-.68,1.49,1.49,0,0,0-.79.24l-3.14,2.07s0,0-.06,0a.35.35,0,0,1,0-.06l-.59-3.43a1.33,1.33,0,0,1,.35-1L95,49.15a3.51,3.51,0,0,0,1-1.91A20.57,20.57,0,0,1,96.3,45a1.72,1.72,0,0,0-1-1.92l-1.85-.78a.37.37,0,0,1-.19-.2.36.36,0,0,1,0-.27L95.46,37a.91.91,0,0,1,.76-.47h0l2.29.11h.08a2.41,2.41,0,0,0,1.86-1c.51-.74,1-1.46,1.61-2.14a3.24,3.24,0,0,0,.69-2l-.22-3.38a1.47,1.47,0,0,1,.46-1l3.56-2.79.07,0a.41.41,0,0,1,0,.09l.8,2.66a1.35,1.35,0,0,0,1.31,1,1.55,1.55,0,0,0,.56-.11,11.88,11.88,0,0,1,1.39-.46,2.86,2.86,0,0,0,1.71-1.3l2.23-4.24a.72.72,0,0,1,.61-.35M104.18,51.92A7.93,7.93,0,0,0,109,50c4-3.13,6.64-9.12,5.92-13.34-.45-2.59-2.08-4.13-4.37-4.13a8,8,0,0,0-4.77,1.94c-4,3.14-6.65,9.12-5.92,13.34.45,2.59,2.08,4.14,4.37,4.14M115.27,21a1.27,1.27,0,0,0-1.11.64l-2.23,4.25a2.29,2.29,0,0,1-1.35,1,11.3,11.3,0,0,0-1.46.48.91.91,0,0,1-.35.07.79.79,0,0,1-.77-.58l-.8-2.66a.6.6,0,0,0-.56-.48.66.66,0,0,0-.44.17l-3.56,2.79a2,2,0,0,0-.67,1.51l.21,3.37a2.7,2.7,0,0,1-.55,1.64c-.58.7-1.13,1.43-1.65,2.18a1.86,1.86,0,0,1-1.39.74h-.06L96.25,36h0a1.46,1.46,0,0,0-1.26.81L92.79,41.6a.92.92,0,0,0,.48,1.22l1.85.79a1.15,1.15,0,0,1,.63,1.27,21.15,21.15,0,0,0-.4,2.29,2.89,2.89,0,0,1-.77,1.56l-3.14,2.9a1.89,1.89,0,0,0-.53,1.55l.59,3.43a.57.57,0,0,0,.54.54.75.75,0,0,0,.4-.13L95.58,55a.87.87,0,0,1,.48-.15,1,1,0,0,1,.78.43,6.5,6.5,0,0,0,.62.75,1.6,1.6,0,0,1,.37,1.5l-1.61,4.34a.8.8,0,0,0,.59,1.08l2.37.53.23,0a1.29,1.29,0,0,0,1.11-.65l2.23-4.24a2.35,2.35,0,0,1,1.35-1,11.82,11.82,0,0,0,1.46-.48.87.87,0,0,1,.35-.07.79.79,0,0,1,.77.58l.8,2.66a.59.59,0,0,0,.56.49.76.76,0,0,0,.44-.17L112,57.76a2,2,0,0,0,.68-1.51l-.21-3.38a2.61,2.61,0,0,1,.55-1.63q.87-1.05,1.65-2.19a1.84,1.84,0,0,1,1.39-.73h0l2.29.11h0a1.47,1.47,0,0,0,1.26-.8l2.14-4.82a.9.9,0,0,0-.47-1.21l-1.85-.79a1.14,1.14,0,0,1-.63-1.27,19.06,19.06,0,0,0,.39-2.3,2.89,2.89,0,0,1,.77-1.56l3.15-2.89a1.89,1.89,0,0,0,.53-1.55l-.59-3.43c-.06-.35-.27-.54-.54-.54a.75.75,0,0,0-.4.13l-3.14,2.07a.9.9,0,0,1-.48.15,1,1,0,0,1-.79-.44,6.43,6.43,0,0,0-.61-.75,1.55,1.55,0,0,1-.37-1.49l1.61-4.34a.8.8,0,0,0-.59-1.08L115.5,21a.9.9,0,0,0-.23,0ZM104.18,51.35c-1.93,0-3.4-1.26-3.81-3.66-.7-4,1.86-9.78,5.71-12.8a7.42,7.42,0,0,1,4.42-1.83c1.93,0,3.4,1.27,3.81,3.67.7,4-1.86,9.77-5.71,12.8a7.42,7.42,0,0,1-4.42,1.82Z" transform="translate(-5 -14.67)" style="fill:#0067b8"/></g><g style="opacity:0.2"><path d="M70.36,22.55h0l.18,0,4.14.92a.46.46,0,0,1,.3.21.43.43,0,0,1,0,.37l-2.8,7.57a3.7,3.7,0,0,0,.86,3.63,10.37,10.37,0,0,1,1,1.2,2.7,2.7,0,0,0,2.18,1.17,2.46,2.46,0,0,0,1.38-.42l5.48-3.61.1,0s0,.06,0,.1l1,6a2.36,2.36,0,0,1-.61,1.81l-5.49,5a6,6,0,0,0-1.66,3.34,35.23,35.23,0,0,1-.67,3.89,3,3,0,0,0,1.68,3.35l3.22,1.37a.64.64,0,0,1,.33.34.62.62,0,0,1,0,.48l-3.75,8.39a1.61,1.61,0,0,1-1.33.82h0l-4-.19h-.14A4.19,4.19,0,0,0,68.55,70c-.89,1.31-1.84,2.56-2.82,3.74a5.64,5.64,0,0,0-1.2,3.54l.37,5.9A2.49,2.49,0,0,1,64.1,85l-6.19,4.87a1,1,0,0,1-.13.09.52.52,0,0,1-.07-.15l-1.39-4.64A2.37,2.37,0,0,0,54,83.42a2.65,2.65,0,0,0-1,.2,18,18,0,0,1-2.42.8,5.05,5.05,0,0,0-3,2.26l-3.88,7.41a1.29,1.29,0,0,1-1.07.6l-.19,0-4.13-.92a.45.45,0,0,1-.31-.21.43.43,0,0,1,0-.37l2.79-7.56A3.68,3.68,0,0,0,40,82a10.45,10.45,0,0,1-1-1.2,2.67,2.67,0,0,0-2.17-1.17,2.52,2.52,0,0,0-1.38.42L30,83.63l-.09.05,0-.1-1-6a2.41,2.41,0,0,1,.62-1.81l5.49-5a6,6,0,0,0,1.65-3.33,37.55,37.55,0,0,1,.68-3.9,3,3,0,0,0-1.68-3.35l-3.22-1.37a.62.62,0,0,1-.32-.82l3.74-8.39a1.63,1.63,0,0,1,1.34-.82h0l4,.19h.15a4.21,4.21,0,0,0,3.24-1.71c.89-1.31,1.84-2.56,2.82-3.74A5.63,5.63,0,0,0,48.51,40l-.37-5.9a2.57,2.57,0,0,1,.8-1.79l6.2-4.87.13-.09a.62.62,0,0,1,.06.15l1.4,4.64A2.36,2.36,0,0,0,59,33.82a2.6,2.6,0,0,0,1-.2,19,19,0,0,1,2.42-.8,5,5,0,0,0,3-2.26l3.89-7.41a1.29,1.29,0,0,1,1.07-.6M51,75.56c2.63,0,5.51-1.17,8.33-3.39,7-5.47,11.6-15.92,10.33-23.28C68.88,44.37,66,41.68,62,41.68c-2.62,0-5.5,1.17-8.33,3.39-7,5.47-11.59,15.92-10.32,23.28.78,4.52,3.62,7.21,7.61,7.21m19.36-54a2.24,2.24,0,0,0-1.94,1.13L64.53,30.1a4.15,4.15,0,0,1-2.35,1.77,20,20,0,0,0-2.55.84,1.66,1.66,0,0,1-.61.12,1.37,1.37,0,0,1-1.34-1l-1.4-4.64a1.06,1.06,0,0,0-1-.85,1.27,1.27,0,0,0-.77.3l-6.2,4.87a3.47,3.47,0,0,0-1.17,2.63l.37,5.9a4.7,4.7,0,0,1-1,2.85c-1,1.21-2,2.49-2.88,3.81A3.22,3.22,0,0,1,41.26,48h-.1l-4-.2h-.09a2.56,2.56,0,0,0-2.2,1.41l-3.74,8.39A1.6,1.6,0,0,0,32,59.69l3.22,1.37a2,2,0,0,1,1.1,2.22,39,39,0,0,0-.69,4A5,5,0,0,1,34.27,70l-5.49,5a3.35,3.35,0,0,0-.92,2.71l1,6a1,1,0,0,0,.94,1,1.28,1.28,0,0,0,.7-.24L36,80.84a1.55,1.55,0,0,1,.84-.25,1.66,1.66,0,0,1,1.36.75,12.68,12.68,0,0,0,1.07,1.31,2.72,2.72,0,0,1,.65,2.61l-2.8,7.57a1.38,1.38,0,0,0,1,1.88l4.14.93a1.75,1.75,0,0,0,.4,0,2.27,2.27,0,0,0,1.94-1.13l3.89-7.41a4.09,4.09,0,0,1,2.35-1.76,21,21,0,0,0,2.54-.85,1.75,1.75,0,0,1,.62-.12,1.38,1.38,0,0,1,1.34,1l1.4,4.64a1,1,0,0,0,1,.85,1.27,1.27,0,0,0,.77-.3l6.19-4.87a3.45,3.45,0,0,0,1.18-2.63l-.37-5.9a4.69,4.69,0,0,1,1-2.85,47,47,0,0,0,2.88-3.81,3.26,3.26,0,0,1,2.43-1.28h.09l4,.2H76a2.55,2.55,0,0,0,2.19-1.41l3.75-8.39a1.6,1.6,0,0,0-.83-2.13l-3.22-1.37A2,2,0,0,1,76.74,54a36.42,36.42,0,0,0,.69-4,5,5,0,0,1,1.34-2.72l5.5-5.05a3.35,3.35,0,0,0,.92-2.71l-1-6c-.11-.61-.48-1-.94-1a1.28,1.28,0,0,0-.7.24L77,36.4a1.52,1.52,0,0,1-.83.25,1.7,1.7,0,0,1-1.37-.75,11.5,11.5,0,0,0-1.07-1.31A2.72,2.72,0,0,1,73.12,32l2.8-7.57a1.38,1.38,0,0,0-1-1.88l-4.13-.93a1.81,1.81,0,0,0-.4,0ZM51,74.58c-3.36,0-5.92-2.21-6.64-6.4-1.21-7.05,3.25-17.05,10-22.33,2.73-2.15,5.42-3.19,7.72-3.19,3.37,0,5.92,2.21,6.64,6.4,1.22,7-3.24,17-10,22.33C56,73.54,53.31,74.58,51,74.58Z" transform="translate(-5 -14.67)" style="fill:#0067b8"/></g><g style="opacity:0.2"><path d="M358.48,73.6l3.09,1.19V68c0-5.4,4.3-6.69,9-4h0c4.67,2.69,8.46,9.25,8.46,14.64v1a4.54,4.54,0,0,1,3.92.6h0A13.45,13.45,0,0,1,389,90.77v.45l4.31,2.49a8.85,8.85,0,0,1,4,6.94c0,2.55-1.8,3.59-4,2.31L358.48,82.85a8.84,8.84,0,0,1-4-6.94C354.48,73.36,356.27,72.32,358.48,73.6Z" transform="translate(-5 -14.67)" style="fill:#0067b8"/><path d="M378.46,124.49l5.6,3.24A6.3,6.3,0,0,1,384,127v-1.62c0-2.88,2-4,4.53-2.61a8.81,8.81,0,0,1,2.69,2.59c.41-3.62,3.26-5,6.72-3a15,15,0,0,1,6.77,11.73v2.42a6.32,6.32,0,0,1-.58,2.81l4.65,2.69a5.52,5.52,0,0,1,2.51,4.34c0,1.6-1.12,2.25-2.51,1.45l-30.33-17.51a5.54,5.54,0,0,1-2.51-4.35C376,124.34,377.07,123.69,378.46,124.49Z" transform="translate(-5 -14.67)" style="fill:#0067b8"/></g></svg>