<svg xmlns="http://www.w3.org/2000/svg" preserveAspectRatio="none" width="1200" height="675"><defs><filter id="a" x="-20%" y="-20%" width="140%" height="140%" color-interpolation-filters="sRGB"><feFlood flood-color="#999" flood-opacity="1" result="result1"/><feGaussianBlur in="SourceGraphic" stdDeviation="2,2" result="result2"/><feComposite in2="result2" in="result1" operator="in" result="result3"/><feComposite in2="result3" in="SourceGraphic" result="result4"/></filter><filter id="c" x="-20%" y="-20%" width="140%" height="140%" color-interpolation-filters="sRGB"><feFlood flood-color="#666" flood-opacity=".6" result="result1"/><feGaussianBlur in="SourceGraphic" stdDeviation="1,1" result="result2"/><feComposite in2="result2" in="result1" operator="in" result="result3"/><feComposite in2="result3" in="SourceGraphic" result="result4"/></filter><filter id="d" x="-20%" y="-20%" width="140%" height="140%" color-interpolation-filters="sRGB"><feFlood flood-color="#666" flood-opacity="1" result="result1"/><feGaussianBlur in="SourceGraphic" stdDeviation="2,2" result="result2"/><feComposite in2="result2" in="result1" operator="in" result="result3"/><feComposite in2="result3" in="SourceGraphic" result="result4"/></filter><filter id="e" x="-24.7756%" y="-24.1936%" width="149.5512%" height="148.3872%" color-interpolation-filters="sRGB"><feFlood flood-color="#666" flood-opacity="1" result="result1"/><feGaussianBlur in="SourceGraphic" stdDeviation="2,2" result="result2"/><feComposite in2="result2" in="result1" operator="in" result="result3"/><feComposite in2="result3" in="SourceGraphic" result="result4"/></filter><filter id="f" x="-22.0442%" y="-22.0525%" width="144.0885%" height="144.1049%" color-interpolation-filters="sRGB"><feFlood flood-color="#666" flood-opacity="1" result="result1"/><feGaussianBlur in="SourceGraphic" stdDeviation="2,2" result="result2"/><feComposite in2="result2" in="result1" operator="in" result="result3"/><feComposite in2="result3" in="SourceGraphic" result="result4"/></filter><filter id="g" x="-22.4082%" y="-32.016%" width="144.8164%" height="164.0321%" color-interpolation-filters="sRGB"><feFlood flood-color="#666" flood-opacity="1" result="result1"/><feGaussianBlur in="SourceGraphic" stdDeviation="2,2" result="result2"/><feComposite in2="result2" in="result1" operator="in" result="result3"/><feComposite in2="result3" in="SourceGraphic" result="result4"/></filter></defs><path fill="#0067B8" fill-opacity=".2" d="M178.6 139.2q-8.5 2.05-14.25 7.2-6.45 5.85-6.6 13.35-.2 12.1 11.85 11.55 7-.35 16-4.45l1.7-.7q14.95-6.45 13.5-18.3-.8-6.4-7.6-8.65-6.2-2.1-14.6 0m546.7 112.45q-14.95-7.45-21.15-22.85-27.9-68.25-68.8-113.85-60-66.85-137.55-71.3-82.55-4.7-153.15 46.8-45.9 33.45-79.7 84.4-5.7 8.65-14.7 13.8-8.95 5.15-19.3 5.75-21.9 1.3-41.45 9.85-26.6 11.75-45.35 35.9-50.7 65.4-37.45 211.5 20.8 225.95 780.4 0 .65-14.8-.5-36.4-2.35-43.2-11.65-77.1-13.05-47.45-38.35-69.6-31.5-27.7-80.3-13.95-16.1 4.45-31-2.95m-44.7-167.6q8.85-8.7 4.3-21.9-4.15-12.1-17.1-22.55-13.3-10.65-28.05-13.4-16.55-3-28.25 5.65-18.85 13.85-3.85 31.75 8.65 10.35 25.6 19.45 2.55 1.35 3.3 1.8 27.7 15.3 44.05-.8Z"/><path fill="#F6F8FC" d="M981.85 162.85q0-7.15-5.05-12.25-5.05-5.05-12.2-5.05H235.5q-7.15 0-12.25 5.05-5.05 5.1-5.05 12.25v426.1q0 7.15 5.05 12.2 5.1 5.1 12.25 5.1h729.1q7.15 0 12.2-5.1 5.05-5.05 5.05-12.2v-426.1Z"/><g filter="url(#a)"><path fill="#FFF" d="M273.1672 107.161Q256.984 123.344 256.984 146.225q0 22.881 16.1832 39.0643 16.1832 16.1832 39.0255 16.1832 22.881 0 39.0642-16.1832 16.1833-16.1832 16.1833-39.0643 0-22.881-16.1833-39.0642-16.1832-16.1832-39.0642-16.1832-22.8423 0-39.0255 16.1832Z"/><path fill="#0067B8" d="M346.7005 138.2123q-2.2757-9.8227-9.477-16.8225-6.971-7.1725-16.8225-9.6498v15.3245q7.9503 3.399 11.3494 11.5223 3.2262 7.9503-.1729 16.0734-3.4278 7.9504-11.551 11.1478-7.9215 3.2262-16.0735 0-7.9215-3.399-11.1477-11.5222-3.1974-7.9504.2016-16.0735 3.1974-7.547 10.9461-11.1478V111.74q-14.1723 3.4278-21.921 15.9006-7.7487 12.4728-4.3496 26.8468 3.399 14.3452 15.8718 22.1227 12.5016 7.7487 26.8468 4.3496 14.374-3.4279 21.9498-15.9007 7.7487-12.4728 4.3497-26.8467Z"/><path fill="#0067B8" d="M318.1412 109.1039q0-2.4578-1.7015-4.3483-1.7016-1.7016-4.3484-1.7016-2.4577 0-4.1592 1.7016-1.7016 1.8905-1.7016 4.3483v24.5775q0 2.4577 1.7016 4.3483 1.7015 1.7015 4.1592 1.7015h.189q2.6469-.189 4.3484-1.8906 1.7015-1.8906 1.5125-4.3483v-24.3884Z"/></g><path fill="#FFF" d="M943 245.4q0-7.15-5.05-12.25-5.1-5.05-12.25-5.05H274.3q-7.15 0-12.2 5.05-5.05 5.1-5.05 12.25v305.3q0 7.15 5.05 12.2 5.05 5.1 12.2 5.1h651.4q7.15 0 12.25-5.1 5.05-5.05 5.05-12.2V245.4Z"/><path fill="#0067B8" d="M942.9928 183.268q0-6.7406-4.7818-11.5511-4.8105-4.7817-11.551-4.7817h-84.4002q-6.7693 0-11.551 4.7817-4.7818 4.8105-4.7818 11.551v13.1065q0 6.7405 4.7817 11.5222 4.7818 4.8106 11.551 4.8106H926.66q6.7405 0 11.551-4.8106 4.7818-4.7817 4.7818-11.5222V183.268Z"/><path fill="#C0D4E3" d="M812.1 196.45v-13.1q0-6.75-4.75-11.55-4.85-4.8-11.55-4.8h-84.4q-6.8 0-11.55 4.8-4.8 4.8-4.8 11.55v13.1q0 6.75 4.8 11.5 4.75 4.85 11.55 4.85h84.4q6.7 0 11.55-4.85 4.75-4.75 4.75-11.5Z"/><path fill="#999" d="M644.4086 184.4019q-1.0947 2.794-1.0947 5.7323 0 3.0821 1.0947 5.7323 1.2674 2.7941 3.1686 4.6953 1.9876 1.9875 4.6953 3.1398 2.65 1.1234 5.7323 1.1234 2.9958 0 5.7323-1.1234 2.7077-1.2387 4.6089-3.1398 1.9875-1.9012 3.1686-4.6953 1.181-2.7942 1.181-5.7323 0-2.7942-1.181-5.7323-1.2387-2.7078-3.1686-4.6377-1.9012-1.9012-4.609-3.1398-2.938-1.181-5.7322-1.181-2.9382 0-5.7323 1.181-2.7077 1.2386-4.6953 3.1398-1.9012 1.93-3.1686 4.6377m5.2138-2.5637q3.4566-3.4567 8.3824-3.4567 4.8393 0 8.296 3.4567 3.4566 3.4566 3.4566 8.296 0 4.9257-3.4566 8.3536-3.3703 3.399-8.296 3.399-5.0122 0-8.3824-3.399-3.3703-3.3703-3.3703-8.3536 0-4.9258 3.3703-8.296m6.4812 15.2669q0 .8066.4897 1.325.5185.5186 1.325.5186.749 0 1.2675-.5185.5761-.5762.5761-1.3251 0-.6625-.5761-1.2386-.605-.605-1.2674-.605-.7202 0-1.3251.605-.4897.5185-.4897 1.2386m-.749-11.0901q.0865-.5761.8066-1.3827.6625-.8066 1.9876-.8066 1.0946 0 1.7571.6626.605.7201.605 1.3826 0 .7202-.461 1.3827-.3744.605-1.0945 1.181-1.6132 1.4691-1.9876 2.218-.3745.6626-.3745 2.6214h2.7365q0-1.0947.2017-1.9012.3744-.8066 1.613-1.9012.9795-.9506 1.4692-1.7571.6049-.9506.6049-2.1316 0-2.074-1.5555-3.1686-1.5267-1.0946-3.5143-1.0946-2.1316 0-3.4567 1.0946-1.325 1.0946-1.7571 2.65l2.4197.9507ZM615.4878 204.1336v-27.682q-5.7323 0-9.7939 4.0615-4.0616 4.0616-4.0616 9.765 0 5.7324 4.0616 9.794 4.0616 4.0615 9.7939 4.0615Z"/><path fill="#FFF" d="M629.3145 190.2782q0-5.7035-4.0616-9.7651t-9.7651-4.0616v27.6821q5.7035 0 9.765-4.0615 4.0617-4.0616 4.0617-9.794Z"/><path stroke="#999" stroke-width="4.99995" stroke-linejoin="round" stroke-linecap="round" fill="none" d="M615.5116 176.4677q5.7034 0 9.765 4.0616 4.0615 4.0615 4.0615 9.765 0 5.7322-4.0615 9.7938-4.0616 4.0615-9.765 4.0615-5.7323 0-9.7938-4.0615-4.0616-4.0616-4.0616-9.7938 0-5.7035 4.0616-9.765 4.0615-4.0616 9.7938-4.0616Z"/><path fill="#C0D4E3" d="M384.2 182.346q-2.15 2.683-2.15 6.4028t2.15 6.4029q2.2 2.622 5.25 2.622h57.25q3.05 0 5.2-2.622 2.2-2.6831 2.2-6.4029 0-3.7197-2.2-6.4028-2.15-2.6221-5.2-2.6221h-57.25q-3.05 0-5.25 2.622ZM546.1 188.7488q0-3.7197-2.2-6.4028-2.15-2.6221-5.2-2.6221h-57.25q-3.05 0-5.25 2.622-2.15 2.6832-2.15 6.403 0 3.7197 2.15 6.4028 2.2 2.622 5.25 2.622h57.25q3.05 0 5.2-2.622 2.2-2.6831 2.2-6.4029Z"/><mask id="b"><path fill="#FFF" d="M1618.85 321.5q-8.8-8.8-21.2-8.8H466.95q-12.4 0-21.2 8.8-8.8 8.8-8.8 21.2v530q0 12.35 8.8 21.15 8.8 8.8 21.2 8.8h1130.7q12.4 0 21.2-8.8 8.8-8.8 8.8-21.15v-530q0-12.4-8.8-21.2Z" transform="translate(5.3 47.2) scale(.57611)"/></mask><g mask="url(#b)"><g filter="url(#c)"><path fill="#FFF" d="M475.5653 266.7333q0-7.1437-5.0698-12.2135t-12.2136-5.0698H294.9833q-7.1437 0-12.2135 5.0698T277.7 266.7333v66.7425q0 7.1437 5.0698 12.2135t12.2135 5.0698H458.282q7.1438 0 12.2136-5.0698t5.0698-12.2135v-66.7425Z"/><path fill="#0067B8" d="M318.3446 268.5769q0-2.8806-2.8805-2.8806h-14.979q-2.8805 0-2.8805 2.8806v14.9789q0 2.8805 2.8806 2.8805h14.9789q2.8805 0 2.8805-2.8805v-14.979Z"/><path fill="#C0D4E3" d="M365.384 303.806q1.642-1.6419 1.642-3.9463 0-2.3044-1.642-3.9464-1.6418-1.6419-3.9463-1.6419H303.193q-2.3044 0-3.9464 1.642-1.6419 1.6419-1.6419 3.9463 0 2.3044 1.642 3.9464 1.6419 1.6419 3.9463 1.6419h58.2448q2.3045 0 3.9464-1.642Z"/><path fill="#E6F9FF" d="M366.738 313.2734q-1.0659-.8805-2.5638-.8805h-62.94q-1.498 0-2.5638.8805-1.0658.8804-1.0658 2.1178v.0238q0 1.2373 1.0658 2.1178 1.0658.8804 2.5637.8804h62.9401q1.498 0 2.5637-.8804 1.0658-.8805 1.0658-2.1178v-.0238q0-1.2374-1.0658-2.1178Z"/><path fill="#F0F0F0" d="M377.684 317.5463q.8066.8642 1.93.8642h47.3275q1.1234 0 1.9012-.8642.8065-.893.8065-2.1316v-.0288q0-1.2387-.8065-2.1028-.7778-.893-1.9012-.893H379.614q-1.1234 0-1.93.893-.8065.8641-.8065 2.1028v.0288q0 1.2386.8065 2.1316Z"/><path fill="#E6F9FF" d="M428.5834 322.8177q-1.0658-.893-2.5637-.893h-62.94q-1.498 0-2.5638.893-1.0658.8642-1.0658 2.1028v.0288q0 1.2387 1.0658 2.1316 1.0658.8642 2.5637.8642h62.9401q1.498 0 2.5637-.8642 1.0658-.893 1.0658-2.1316v-.0288q0-1.2386-1.0658-2.1028Z"/><path fill="#F0F0F0" d="M349.5698 327.081q-.8065.8641-1.93.8641h-47.3274q-1.1235 0-1.9012-.8642-.8066-.893-.8066-2.1316v-.0288q0-1.2386.8066-2.1028.7777-.893 1.9012-.893h47.3275q1.1234 0 1.93.893.8065.8642.8065 2.1028v.0288q0 1.2387-.8066 2.1316Z"/><path fill="#E6F9FF" d="M366.738 334.0422q-1.0659-.8805-2.5638-.8805h-62.94q-1.498 0-2.5638.8805-1.0658.8804-1.0658 2.1178v.0238q0 1.2373 1.0658 2.1178 1.0658.8804 2.5637.8804h62.9401q1.498 0 2.5637-.8804 1.0658-.8805 1.0658-2.1178v-.0238q0-1.2374-1.0658-2.1178Z"/><path fill="#F0F0F0" d="M377.684 338.3151q.8066.8642 1.93.8642h47.3275q1.1234 0 1.9012-.8642.8065-.893.8065-2.1316v-.0288q0-1.2387-.8065-2.1028-.7778-.893-1.9012-.893H379.614q-1.1234 0-1.93.893-.8065.8641-.8065 2.1028v.0288q0 1.2386.8065 2.1316Z"/></g><g filter="url(#c)"><path fill="#FFF" d="M698.9153 266.7333q0-7.1437-5.0698-12.2135t-12.2136-5.0698H518.3333q-7.1437 0-12.2135 5.0698t-5.0698 12.2135v66.7425q0 7.1437 5.0698 12.2135t12.2135 5.0698H681.632q7.1438 0 12.2136-5.0698t5.0698-12.2135v-66.7425Z"/><path fill="#0067B8" d="M541.6946 268.5769q0-2.8806-2.8805-2.8806h-14.979q-2.8805 0-2.8805 2.8806v14.9789q0 2.8805 2.8806 2.8805h14.9789q2.8805 0 2.8805-2.8805v-14.979Z"/><path fill="#C0D4E3" d="M588.734 303.806q1.642-1.6419 1.642-3.9463 0-2.3044-1.642-3.9464-1.6418-1.6419-3.9463-1.6419H526.543q-2.3044 0-3.9464 1.642-1.6419 1.6419-1.6419 3.9463 0 2.3044 1.642 3.9464 1.6419 1.6419 3.9463 1.6419h58.2448q2.3045 0 3.9464-1.642Z"/><path fill="#E6F9FF" d="M590.088 313.2734q-1.0659-.8805-2.5638-.8805h-62.94q-1.498 0-2.5638.8805-1.0658.8804-1.0658 2.1178v.0238q0 1.2373 1.0658 2.1178 1.0658.8804 2.5637.8804h62.9401q1.498 0 2.5637-.8804 1.0658-.8805 1.0658-2.1178v-.0238q0-1.2374-1.0658-2.1178Z"/><path fill="#F0F0F0" d="M601.034 317.5463q.8066.8642 1.93.8642h47.3275q1.1234 0 1.9012-.8642.8065-.893.8065-2.1316v-.0288q0-1.2387-.8065-2.1028-.7778-.893-1.9012-.893H602.964q-1.1234 0-1.93.893-.8065.8641-.8065 2.1028v.0288q0 1.2386.8065 2.1316Z"/><path fill="#E6F9FF" d="M651.9334 322.8177q-1.0658-.893-2.5637-.893h-62.94q-1.498 0-2.5638.893-1.0658.8642-1.0658 2.1028v.0288q0 1.2387 1.0658 2.1316 1.0658.8642 2.5637.8642h62.9401q1.498 0 2.5637-.8642 1.0658-.893 1.0658-2.1316v-.0288q0-1.2386-1.0658-2.1028Z"/><path fill="#F0F0F0" d="M572.9198 327.081q-.8065.8641-1.93.8641h-47.3274q-1.1235 0-1.9012-.8642-.8066-.893-.8066-2.1316v-.0288q0-1.2386.8066-2.1028.7777-.893 1.9012-.893h47.3275q1.1234 0 1.93.893.8065.8642.8065 2.1028v.0288q0 1.2387-.8066 2.1316Z"/><path fill="#E6F9FF" d="M590.088 334.0422q-1.0659-.8805-2.5638-.8805h-62.94q-1.498 0-2.5638.8805-1.0658.8804-1.0658 2.1178v.0238q0 1.2373 1.0658 2.1178 1.0658.8804 2.5637.8804h62.9401q1.498 0 2.5637-.8804 1.0658-.8805 1.0658-2.1178v-.0238q0-1.2374-1.0658-2.1178Z"/><path fill="#F0F0F0" d="M601.034 338.3151q.8066.8642 1.93.8642h47.3275q1.1234 0 1.9012-.8642.8065-.893.8065-2.1316v-.0288q0-1.2387-.8065-2.1028-.7778-.893-1.9012-.893H602.964q-1.1234 0-1.93.893-.8065.8641-.8065 2.1028v.0288q0 1.2386.8065 2.1316Z"/></g><g filter="url(#c)"><path fill="#FFF" d="M922.3153 266.7333q0-7.1437-5.0698-12.2135t-12.2136-5.0698H741.7333q-7.1437 0-12.2135 5.0698t-5.0698 12.2135v66.7425q0 7.1437 5.0698 12.2135t12.2135 5.0698H905.032q7.1438 0 12.2136-5.0698t5.0698-12.2135v-66.7425Z"/><path fill="#0067B8" d="M765.0946 268.5769q0-2.8806-2.8805-2.8806h-14.979q-2.8805 0-2.8805 2.8806v14.9789q0 2.8805 2.8806 2.8805h14.9789q2.8805 0 2.8805-2.8805v-14.979Z"/><path fill="#C0D4E3" d="M812.134 303.806q1.642-1.6419 1.642-3.9463 0-2.3044-1.642-3.9464-1.6418-1.6419-3.9463-1.6419H749.943q-2.3044 0-3.9464 1.642-1.6419 1.6419-1.6419 3.9463 0 2.3044 1.642 3.9464 1.6419 1.6419 3.9463 1.6419h58.2448q2.3045 0 3.9464-1.642Z"/><path fill="#E6F9FF" d="M813.488 313.2734q-1.0659-.8805-2.5638-.8805h-62.94q-1.498 0-2.5638.8805-1.0658.8804-1.0658 2.1178v.0238q0 1.2373 1.0658 2.1178 1.0658.8804 2.5637.8804h62.9401q1.498 0 2.5637-.8804 1.0658-.8805 1.0658-2.1178v-.0238q0-1.2374-1.0658-2.1178Z"/><path fill="#F0F0F0" d="M824.434 317.5463q.8066.8642 1.93.8642h47.3275q1.1234 0 1.9012-.8642.8065-.893.8065-2.1316v-.0288q0-1.2387-.8065-2.1028-.7778-.893-1.9012-.893H826.364q-1.1234 0-1.93.893-.8065.8641-.8065 2.1028v.0288q0 1.2386.8065 2.1316Z"/><path fill="#E6F9FF" d="M875.3334 322.8177q-1.0658-.893-2.5637-.893h-62.94q-1.498 0-2.5638.893-1.0658.8642-1.0658 2.1028v.0288q0 1.2387 1.0658 2.1316 1.0658.8642 2.5637.8642h62.9401q1.498 0 2.5637-.8642 1.0658-.893 1.0658-2.1316v-.0288q0-1.2386-1.0658-2.1028Z"/><path fill="#F0F0F0" d="M796.3198 327.081q-.8065.8641-1.93.8641h-47.3274q-1.1235 0-1.9012-.8642-.8066-.893-.8066-2.1316v-.0288q0-1.2386.8066-2.1028.7777-.893 1.9012-.893h47.3275q1.1234 0 1.93.893.8065.8642.8065 2.1028v.0288q0 1.2387-.8066 2.1316Z"/><path fill="#E6F9FF" d="M813.488 334.0422q-1.0659-.8805-2.5638-.8805h-62.94q-1.498 0-2.5638.8805-1.0658.8804-1.0658 2.1178v.0238q0 1.2373 1.0658 2.1178 1.0658.8804 2.5637.8804h62.9401q1.498 0 2.5637-.8804 1.0658-.8805 1.0658-2.1178v-.0238q0-1.2374-1.0658-2.1178Z"/><path fill="#F0F0F0" d="M824.434 338.3151q.8066.8642 1.93.8642h47.3275q1.1234 0 1.9012-.8642.8065-.893.8065-2.1316v-.0288q0-1.2387-.8065-2.1028-.7778-.893-1.9012-.893H826.364q-1.1234 0-1.93.893-.8065.8641-.8065 2.1028v.0288q0 1.2386.8065 2.1316Z"/></g><g filter="url(#c)"><path fill="#FFF" d="M475.5653 392.1833q0-7.1437-5.0698-12.2135T458.2819 374.9H294.9833q-7.1437 0-12.2135 5.0698T277.7 392.1833v66.7425q0 7.1437 5.0698 12.2135t12.2135 5.0698H458.282q7.1438 0 12.2136-5.0698t5.0698-12.2135v-66.7425Z"/><path fill="#0067B8" d="M318.3446 394.0269q0-2.8806-2.8805-2.8806h-14.979q-2.8805 0-2.8805 2.8806v14.9789q0 2.8805 2.8806 2.8805h14.9789q2.8805 0 2.8805-2.8805v-14.979Z"/><path fill="#C0D4E3" d="M365.384 429.256q1.642-1.6419 1.642-3.9463 0-2.3044-1.642-3.9464-1.6418-1.6419-3.9463-1.6419H303.193q-2.3044 0-3.9464 1.642-1.6419 1.6419-1.6419 3.9463 0 2.3044 1.642 3.9464 1.6419 1.6419 3.9463 1.6419h58.2448q2.3045 0 3.9464-1.642Z"/><path fill="#E6F9FF" d="M366.738 438.7234q-1.0659-.8805-2.5638-.8805h-62.94q-1.498 0-2.5638.8805-1.0658.8804-1.0658 2.1178v.0238q0 1.2373 1.0658 2.1178 1.0658.8804 2.5637.8804h62.9401q1.498 0 2.5637-.8804 1.0658-.8805 1.0658-2.1178v-.0238q0-1.2374-1.0658-2.1178Z"/><path fill="#F0F0F0" d="M377.684 442.9963q.8066.8642 1.93.8642h47.3275q1.1234 0 1.9012-.8642.8065-.893.8065-2.1316v-.0288q0-1.2387-.8065-2.1028-.7778-.893-1.9012-.893H379.614q-1.1234 0-1.93.893-.8065.8641-.8065 2.1028v.0288q0 1.2386.8065 2.1316Z"/><path fill="#E6F9FF" d="M428.5834 448.2677q-1.0658-.893-2.5637-.893h-62.94q-1.498 0-2.5638.893-1.0658.8642-1.0658 2.1028v.0288q0 1.2387 1.0658 2.1316 1.0658.8642 2.5637.8642h62.9401q1.498 0 2.5637-.8642 1.0658-.893 1.0658-2.1316v-.0288q0-1.2386-1.0658-2.1028Z"/><path fill="#F0F0F0" d="M349.5698 452.531q-.8065.8641-1.93.8641h-47.3274q-1.1235 0-1.9012-.8642-.8066-.893-.8066-2.1316v-.0288q0-1.2386.8066-2.1028.7777-.893 1.9012-.893h47.3275q1.1234 0 1.93.893.8065.8642.8065 2.1028v.0288q0 1.2387-.8066 2.1316Z"/><path fill="#E6F9FF" d="M366.738 459.4922q-1.0659-.8805-2.5638-.8805h-62.94q-1.498 0-2.5638.8805-1.0658.8804-1.0658 2.1178v.0238q0 1.2373 1.0658 2.1178 1.0658.8804 2.5637.8804h62.9401q1.498 0 2.5637-.8804 1.0658-.8805 1.0658-2.1178v-.0238q0-1.2374-1.0658-2.1178Z"/><path fill="#F0F0F0" d="M377.684 463.7651q.8066.8642 1.93.8642h47.3275q1.1234 0 1.9012-.8642.8065-.893.8065-2.1316v-.0288q0-1.2387-.8065-2.1028-.7778-.893-1.9012-.893H379.614q-1.1234 0-1.93.893-.8065.8641-.8065 2.1028v.0288q0 1.2386.8065 2.1316Z"/></g><g filter="url(#c)"><path fill="#FFF" d="M698.9153 392.1833q0-7.1437-5.0698-12.2135T681.6319 374.9H518.3333q-7.1437 0-12.2135 5.0698t-5.0698 12.2135v66.7425q0 7.1437 5.0698 12.2135t12.2135 5.0698H681.632q7.1438 0 12.2136-5.0698t5.0698-12.2135v-66.7425Z"/><path fill="#0067B8" d="M541.6946 394.0269q0-2.8806-2.8805-2.8806h-14.979q-2.8805 0-2.8805 2.8806v14.9789q0 2.8805 2.8806 2.8805h14.9789q2.8805 0 2.8805-2.8805v-14.979Z"/><path fill="#C0D4E3" d="M588.734 429.256q1.642-1.6419 1.642-3.9463 0-2.3044-1.642-3.9464-1.6418-1.6419-3.9463-1.6419H526.543q-2.3044 0-3.9464 1.642-1.6419 1.6419-1.6419 3.9463 0 2.3044 1.642 3.9464 1.6419 1.6419 3.9463 1.6419h58.2448q2.3045 0 3.9464-1.642Z"/><path fill="#E6F9FF" d="M590.088 438.7234q-1.0659-.8805-2.5638-.8805h-62.94q-1.498 0-2.5638.8805-1.0658.8804-1.0658 2.1178v.0238q0 1.2373 1.0658 2.1178 1.0658.8804 2.5637.8804h62.9401q1.498 0 2.5637-.8804 1.0658-.8805 1.0658-2.1178v-.0238q0-1.2374-1.0658-2.1178Z"/><path fill="#F0F0F0" d="M601.034 442.9963q.8066.8642 1.93.8642h47.3275q1.1234 0 1.9012-.8642.8065-.893.8065-2.1316v-.0288q0-1.2387-.8065-2.1028-.7778-.893-1.9012-.893H602.964q-1.1234 0-1.93.893-.8065.8641-.8065 2.1028v.0288q0 1.2386.8065 2.1316Z"/><path fill="#E6F9FF" d="M651.9334 448.2677q-1.0658-.893-2.5637-.893h-62.94q-1.498 0-2.5638.893-1.0658.8642-1.0658 2.1028v.0288q0 1.2387 1.0658 2.1316 1.0658.8642 2.5637.8642h62.9401q1.498 0 2.5637-.8642 1.0658-.893 1.0658-2.1316v-.0288q0-1.2386-1.0658-2.1028Z"/><path fill="#F0F0F0" d="M572.9198 452.531q-.8065.8641-1.93.8641h-47.3274q-1.1235 0-1.9012-.8642-.8066-.893-.8066-2.1316v-.0288q0-1.2386.8066-2.1028.7777-.893 1.9012-.893h47.3275q1.1234 0 1.93.893.8065.8642.8065 2.1028v.0288q0 1.2387-.8066 2.1316Z"/><path fill="#E6F9FF" d="M590.088 459.4922q-1.0659-.8805-2.5638-.8805h-62.94q-1.498 0-2.5638.8805-1.0658.8804-1.0658 2.1178v.0238q0 1.2373 1.0658 2.1178 1.0658.8804 2.5637.8804h62.9401q1.498 0 2.5637-.8804 1.0658-.8805 1.0658-2.1178v-.0238q0-1.2374-1.0658-2.1178Z"/><path fill="#F0F0F0" d="M601.034 463.7651q.8066.8642 1.93.8642h47.3275q1.1234 0 1.9012-.8642.8065-.893.8065-2.1316v-.0288q0-1.2387-.8065-2.1028-.7778-.893-1.9012-.893H602.964q-1.1234 0-1.93.893-.8065.8641-.8065 2.1028v.0288q0 1.2386.8065 2.1316Z"/></g><g filter="url(#c)"><path fill="#FFF" d="M922.3153 392.1833q0-7.1437-5.0698-12.2135T905.0319 374.9H741.7333q-7.1437 0-12.2135 5.0698t-5.0698 12.2135v66.7425q0 7.1437 5.0698 12.2135t12.2135 5.0698H905.032q7.1438 0 12.2136-5.0698t5.0698-12.2135v-66.7425Z"/><path fill="#0067B8" d="M765.0946 394.0269q0-2.8806-2.8805-2.8806h-14.979q-2.8805 0-2.8805 2.8806v14.9789q0 2.8805 2.8806 2.8805h14.9789q2.8805 0 2.8805-2.8805v-14.979Z"/><path fill="#C0D4E3" d="M812.134 429.256q1.642-1.6419 1.642-3.9463 0-2.3044-1.642-3.9464-1.6418-1.6419-3.9463-1.6419H749.943q-2.3044 0-3.9464 1.642-1.6419 1.6419-1.6419 3.9463 0 2.3044 1.642 3.9464 1.6419 1.6419 3.9463 1.6419h58.2448q2.3045 0 3.9464-1.642Z"/><path fill="#E6F9FF" d="M813.488 438.7234q-1.0659-.8805-2.5638-.8805h-62.94q-1.498 0-2.5638.8805-1.0658.8804-1.0658 2.1178v.0238q0 1.2373 1.0658 2.1178 1.0658.8804 2.5637.8804h62.9401q1.498 0 2.5637-.8804 1.0658-.8805 1.0658-2.1178v-.0238q0-1.2374-1.0658-2.1178Z"/><path fill="#F0F0F0" d="M824.434 442.9963q.8066.8642 1.93.8642h47.3275q1.1234 0 1.9012-.8642.8065-.893.8065-2.1316v-.0288q0-1.2387-.8065-2.1028-.7778-.893-1.9012-.893H826.364q-1.1234 0-1.93.893-.8065.8641-.8065 2.1028v.0288q0 1.2386.8065 2.1316Z"/><path fill="#E6F9FF" d="M875.3334 448.2677q-1.0658-.893-2.5637-.893h-62.94q-1.498 0-2.5638.893-1.0658.8642-1.0658 2.1028v.0288q0 1.2387 1.0658 2.1316 1.0658.8642 2.5637.8642h62.9401q1.498 0 2.5637-.8642 1.0658-.893 1.0658-2.1316v-.0288q0-1.2386-1.0658-2.1028Z"/><path fill="#F0F0F0" d="M796.3198 452.531q-.8065.8641-1.93.8641h-47.3274q-1.1235 0-1.9012-.8642-.8066-.893-.8066-2.1316v-.0288q0-1.2386.8066-2.1028.7777-.893 1.9012-.893h47.3275q1.1234 0 1.93.893.8065.8642.8065 2.1028v.0288q0 1.2387-.8066 2.1316Z"/><path fill="#E6F9FF" d="M813.488 459.4922q-1.0659-.8805-2.5638-.8805h-62.94q-1.498 0-2.5638.8805-1.0658.8804-1.0658 2.1178v.0238q0 1.2373 1.0658 2.1178 1.0658.8804 2.5637.8804h62.9401q1.498 0 2.5637-.8804 1.0658-.8805 1.0658-2.1178v-.0238q0-1.2374-1.0658-2.1178Z"/><path fill="#F0F0F0" d="M824.434 463.7651q.8066.8642 1.93.8642h47.3275q1.1234 0 1.9012-.8642.8065-.893.8065-2.1316v-.0288q0-1.2387-.8065-2.1028-.7778-.893-1.9012-.893H826.364q-1.1234 0-1.93.893-.8065.8641-.8065 2.1028v.0288q0 1.2386.8065 2.1316Z"/></g><g filter="url(#c)"><path fill="#FFF" d="M475.5653 519.6833q0-7.1437-5.0698-12.2135T458.2819 502.4H294.9833q-7.1437 0-12.2135 5.0698T277.7 519.6833v66.7425q0 7.1437 5.0698 12.2135t12.2135 5.0698H458.282q7.1438 0 12.2136-5.0698t5.0698-12.2135v-66.7425Z"/><path fill="#0067B8" d="M318.3446 521.5269q0-2.8806-2.8805-2.8806h-14.979q-2.8805 0-2.8805 2.8806v14.9789q0 2.8805 2.8806 2.8805h14.9789q2.8805 0 2.8805-2.8805v-14.979Z"/><path fill="#C0D4E3" d="M365.384 556.756q1.642-1.6419 1.642-3.9463 0-2.3044-1.642-3.9464-1.6418-1.6419-3.9463-1.6419H303.193q-2.3044 0-3.9464 1.642-1.6419 1.6419-1.6419 3.9463 0 2.3044 1.642 3.9464 1.6419 1.6419 3.9463 1.6419h58.2448q2.3045 0 3.9464-1.642Z"/><path fill="#E6F9FF" d="M366.738 566.2234q-1.0659-.8805-2.5638-.8805h-62.94q-1.498 0-2.5638.8805-1.0658.8804-1.0658 2.1178v.0238q0 1.2373 1.0658 2.1178 1.0658.8804 2.5637.8804h62.9401q1.498 0 2.5637-.8804 1.0658-.8805 1.0658-2.1178v-.0238q0-1.2374-1.0658-2.1178Z"/><path fill="#F0F0F0" d="M377.684 570.4963q.8066.8642 1.93.8642h47.3275q1.1234 0 1.9012-.8642.8065-.893.8065-2.1316v-.0288q0-1.2387-.8065-2.1028-.7778-.893-1.9012-.893H379.614q-1.1234 0-1.93.893-.8065.8641-.8065 2.1028v.0288q0 1.2386.8065 2.1316Z"/><path fill="#E6F9FF" d="M428.5834 575.7677q-1.0658-.893-2.5637-.893h-62.94q-1.498 0-2.5638.893-1.0658.8642-1.0658 2.1028v.0288q0 1.2387 1.0658 2.1316 1.0658.8642 2.5637.8642h62.9401q1.498 0 2.5637-.8642 1.0658-.893 1.0658-2.1316v-.0288q0-1.2386-1.0658-2.1028Z"/><path fill="#F0F0F0" d="M349.5698 580.031q-.8065.8641-1.93.8641h-47.3274q-1.1235 0-1.9012-.8642-.8066-.893-.8066-2.1316v-.0288q0-1.2386.8066-2.1028.7777-.893 1.9012-.893h47.3275q1.1234 0 1.93.893.8065.8642.8065 2.1028v.0288q0 1.2387-.8066 2.1316Z"/><path fill="#E6F9FF" d="M366.738 586.9922q-1.0659-.8805-2.5638-.8805h-62.94q-1.498 0-2.5638.8805-1.0658.8804-1.0658 2.1178v.0238q0 1.2373 1.0658 2.1178 1.0658.8804 2.5637.8804h62.9401q1.498 0 2.5637-.8804 1.0658-.8805 1.0658-2.1178v-.0238q0-1.2374-1.0658-2.1178Z"/><path fill="#F0F0F0" d="M377.684 591.2651q.8066.8642 1.93.8642h47.3275q1.1234 0 1.9012-.8642.8065-.893.8065-2.1316v-.0288q0-1.2387-.8065-2.1028-.7778-.893-1.9012-.893H379.614q-1.1234 0-1.93.893-.8065.8641-.8065 2.1028v.0288q0 1.2386.8065 2.1316Z"/></g><g filter="url(#c)"><path fill="#FFF" d="M698.9153 519.6833q0-7.1437-5.0698-12.2135T681.6319 502.4H518.3333q-7.1437 0-12.2135 5.0698t-5.0698 12.2135v66.7425q0 7.1437 5.0698 12.2135t12.2135 5.0698H681.632q7.1438 0 12.2136-5.0698t5.0698-12.2135v-66.7425Z"/><path fill="#0067B8" d="M541.6946 521.5269q0-2.8806-2.8805-2.8806h-14.979q-2.8805 0-2.8805 2.8806v14.9789q0 2.8805 2.8806 2.8805h14.9789q2.8805 0 2.8805-2.8805v-14.979Z"/><path fill="#C0D4E3" d="M588.734 556.756q1.642-1.6419 1.642-3.9463 0-2.3044-1.642-3.9464-1.6418-1.6419-3.9463-1.6419H526.543q-2.3044 0-3.9464 1.642-1.6419 1.6419-1.6419 3.9463 0 2.3044 1.642 3.9464 1.6419 1.6419 3.9463 1.6419h58.2448q2.3045 0 3.9464-1.642Z"/><path fill="#E6F9FF" d="M590.088 566.2234q-1.0659-.8805-2.5638-.8805h-62.94q-1.498 0-2.5638.8805-1.0658.8804-1.0658 2.1178v.0238q0 1.2373 1.0658 2.1178 1.0658.8804 2.5637.8804h62.9401q1.498 0 2.5637-.8804 1.0658-.8805 1.0658-2.1178v-.0238q0-1.2374-1.0658-2.1178Z"/><path fill="#F0F0F0" d="M601.034 570.4963q.8066.8642 1.93.8642h47.3275q1.1234 0 1.9012-.8642.8065-.893.8065-2.1316v-.0288q0-1.2387-.8065-2.1028-.7778-.893-1.9012-.893H602.964q-1.1234 0-1.93.893-.8065.8641-.8065 2.1028v.0288q0 1.2386.8065 2.1316Z"/><path fill="#E6F9FF" d="M651.9334 575.7677q-1.0658-.893-2.5637-.893h-62.94q-1.498 0-2.5638.893-1.0658.8642-1.0658 2.1028v.0288q0 1.2387 1.0658 2.1316 1.0658.8642 2.5637.8642h62.9401q1.498 0 2.5637-.8642 1.0658-.893 1.0658-2.1316v-.0288q0-1.2386-1.0658-2.1028Z"/><path fill="#F0F0F0" d="M572.9198 580.031q-.8065.8641-1.93.8641h-47.3274q-1.1235 0-1.9012-.8642-.8066-.893-.8066-2.1316v-.0288q0-1.2386.8066-2.1028.7777-.893 1.9012-.893h47.3275q1.1234 0 1.93.893.8065.8642.8065 2.1028v.0288q0 1.2387-.8066 2.1316Z"/><path fill="#E6F9FF" d="M590.088 586.9922q-1.0659-.8805-2.5638-.8805h-62.94q-1.498 0-2.5638.8805-1.0658.8804-1.0658 2.1178v.0238q0 1.2373 1.0658 2.1178 1.0658.8804 2.5637.8804h62.9401q1.498 0 2.5637-.8804 1.0658-.8805 1.0658-2.1178v-.0238q0-1.2374-1.0658-2.1178Z"/><path fill="#F0F0F0" d="M601.034 591.2651q.8066.8642 1.93.8642h47.3275q1.1234 0 1.9012-.8642.8065-.893.8065-2.1316v-.0288q0-1.2387-.8065-2.1028-.7778-.893-1.9012-.893H602.964q-1.1234 0-1.93.893-.8065.8641-.8065 2.1028v.0288q0 1.2386.8065 2.1316Z"/></g><g filter="url(#c)"><path fill="#FFF" d="M922.3153 519.6833q0-7.1437-5.0698-12.2135T905.0319 502.4H741.7333q-7.1437 0-12.2135 5.0698t-5.0698 12.2135v66.7425q0 7.1437 5.0698 12.2135t12.2135 5.0698H905.032q7.1438 0 12.2136-5.0698t5.0698-12.2135v-66.7425Z"/><path fill="#0067B8" d="M765.0946 521.5269q0-2.8806-2.8805-2.8806h-14.979q-2.8805 0-2.8805 2.8806v14.9789q0 2.8805 2.8806 2.8805h14.9789q2.8805 0 2.8805-2.8805v-14.979Z"/><path fill="#C0D4E3" d="M812.134 556.756q1.642-1.6419 1.642-3.9463 0-2.3044-1.642-3.9464-1.6418-1.6419-3.9463-1.6419H749.943q-2.3044 0-3.9464 1.642-1.6419 1.6419-1.6419 3.9463 0 2.3044 1.642 3.9464 1.6419 1.6419 3.9463 1.6419h58.2448q2.3045 0 3.9464-1.642Z"/><path fill="#E6F9FF" d="M813.488 566.2234q-1.0659-.8805-2.5638-.8805h-62.94q-1.498 0-2.5638.8805-1.0658.8804-1.0658 2.1178v.0238q0 1.2373 1.0658 2.1178 1.0658.8804 2.5637.8804h62.9401q1.498 0 2.5637-.8804 1.0658-.8805 1.0658-2.1178v-.0238q0-1.2374-1.0658-2.1178Z"/><path fill="#F0F0F0" d="M824.434 570.4963q.8066.8642 1.93.8642h47.3275q1.1234 0 1.9012-.8642.8065-.893.8065-2.1316v-.0288q0-1.2387-.8065-2.1028-.7778-.893-1.9012-.893H826.364q-1.1234 0-1.93.893-.8065.8641-.8065 2.1028v.0288q0 1.2386.8065 2.1316Z"/><path fill="#E6F9FF" d="M875.3334 575.7677q-1.0658-.893-2.5637-.893h-62.94q-1.498 0-2.5638.893-1.0658.8642-1.0658 2.1028v.0288q0 1.2387 1.0658 2.1316 1.0658.8642 2.5637.8642h62.9401q1.498 0 2.5637-.8642 1.0658-.893 1.0658-2.1316v-.0288q0-1.2386-1.0658-2.1028Z"/><path fill="#F0F0F0" d="M796.3198 580.031q-.8065.8641-1.93.8641h-47.3274q-1.1235 0-1.9012-.8642-.8066-.893-.8066-2.1316v-.0288q0-1.2386.8066-2.1028.7777-.893 1.9012-.893h47.3275q1.1234 0 1.93.893.8065.8642.8065 2.1028v.0288q0 1.2387-.8066 2.1316Z"/><path fill="#E6F9FF" d="M813.488 586.9922q-1.0659-.8805-2.5638-.8805h-62.94q-1.498 0-2.5638.8805-1.0658.8804-1.0658 2.1178v.0238q0 1.2373 1.0658 2.1178 1.0658.8804 2.5637.8804h62.9401q1.498 0 2.5637-.8804 1.0658-.8805 1.0658-2.1178v-.0238q0-1.2374-1.0658-2.1178Z"/><path fill="#F0F0F0" d="M824.434 591.2651q.8066.8642 1.93.8642h47.3275q1.1234 0 1.9012-.8642.8065-.893.8065-2.1316v-.0288q0-1.2387-.8065-2.1028-.7778-.893-1.9012-.893H826.364q-1.1234 0-1.93.893-.8065.8641-.8065 2.1028v.0288q0 1.2386.8065 2.1316Z"/></g></g><g filter="url(#d)"><path fill="#FFF" d="M1068.6661 538.0838q0-10.6986-7.5926-18.2912-7.5925-7.5926-18.2912-7.5926h-61.9485q-10.6986 0-18.2912 7.5926-7.5926 7.5926-7.5926 18.2912v77.4788q0 10.6986 7.5926 18.2912 7.5926 7.5926 18.2912 7.5926h61.9485q10.6987 0 18.2912-7.5926 7.5926-7.5926 7.5926-18.2912v-77.4788Z"/><path fill="#0067B8" d="M1050.1867 572.5688V546.973l-38.3937-17.0373-38.3938 17.0373v25.5958q0 17.8371 10.9582 32.4747 10.9583 14.7176 27.4356 18.717 16.4773-3.9994 27.4355-18.717 10.9582-14.6376 10.9582-32.4747m-8.5586 4.2393q-1.6797 13.3578-9.8384 23.8361-8.2386 10.6383-19.9967 14.3177v-38.0738h-29.9152v-24.316l29.9152-13.2779v37.514h29.8351Z"/></g><g filter="url(#e)"><path fill="#FFF" d="M207.9367 395.5108q0-5.1505-3.988-8.8056-3.988-3.6552-9.6074-3.6552h-32.5381q-5.6194 0-9.6074 3.6552-3.988 3.6551-3.988 8.8056V432.81q0 5.1504 3.988 8.8056t9.6074 3.6552h32.5381q5.6194 0 9.6074-3.6552 3.988-3.6552 3.988-8.8056v-37.2993Z"/><path fill="#0067B8" d="M188.7102 410.9561q.1605-.361-.0401-.682-.2407-.4012-.9629-.4012h-7.5021l2.1263-14.9642h-2.1263l-12.4367 21.8646.04-.1203-.2005.361q-.7623 1.4042.8425 1.4042h7.462l-2.1263 15.0043h2.1263l12.7978-22.4664Z"/></g><g filter="url(#f)" transform="matrix(.41534 0 0 .41534 849.8 67.75)"><path fill="#FFF" d="M153.0097 79.0215q0-36.584-25.802-62.386T64.7593-9.1665q-36.584 0-62.3861 25.802-25.802 25.802-25.802 62.386 0 36.6464 25.802 62.4485 25.802 25.802 62.386 25.802 36.6464 0 62.4485-25.802 25.802-25.802 25.802-62.4485Z"/><path fill="#0067B8" d="M86.1902 55.3978q0-8.8155-6.4172-15.0383-6.0283-6.4172-15.0383-6.4172T49.502 40.3595q-6.2227 6.0283-6.2227 15.0383v8.621H39.001q-3.6947 0-6.2875 2.5929Q30.38 68.9452 30.38 72.575v42.9757q0 3.8244 2.3335 6.2228 2.3983 2.3335 6.2875 2.3335h51.532q3.63 0 5.9635-2.3335 2.5928-2.5928 2.5928-6.2228V72.5751q0-3.4354-2.5928-5.9634-2.528-2.5928-5.9635-2.5928h-4.343v-8.6211m-12.4454-9.01q3.8892 3.8892 3.8892 9.01v8.621H51.8355v-8.621q0-5.38 3.6948-9.01 3.8243-3.8244 9.2044-3.8244 5.1856 0 9.01 3.8244m-34.7436 69.163V72.5751h51.532v42.9757h-51.532M58.512 88.0671q-2.3335 2.3336-2.3335 6.0283 0 3.8244 2.3335 6.2227 2.3335 2.3335 6.2227 2.3335 3.63 0 6.0283-2.3335 2.5928-2.5928 2.5928-6.2227 0-3.4355-2.5928-6.0283-2.5928-2.5928-6.0283-2.5928-3.63 0-6.2227 2.5928Z"/></g><path fill="#E9EAEA" d="M191.049 575.5825q-2.0624 0-3.5311 1.4687-1.4687 1.4687-1.4687 3.5312 0 2.0937 1.4687 3.5311 1.4687 1.4687 3.5311 1.4687 2.0937 0 3.5312-1.4687 1.4687-1.4374 1.4687-3.5311 0-2.0625-1.4687-3.5312-1.4375-1.4687-3.5312-1.4687Z"/><path stroke="#FFF" stroke-width="3" stroke-miterlimit="10" fill="none" d="M217.9773 212.8341q4.1562 0 7.0623 2.9374 2.9375 2.9374 2.9375 7.0623 0 4.1562-2.9375 7.0624-2.9061 2.9374-7.0623 2.9374-4.1561 0-7.0623-2.9374-2.9374-2.9062-2.9374-7.0624 0-4.1249 2.9374-7.0623 2.9062-2.9374 7.0623-2.9374Z"/><path fill="#0067B8" d="m1051.7175 78.291.816-8.2556h3.1199l-.864 8.8796-3.0719-.624ZM1047.4457 89.9066l3.2159-7.6317 2.9759.96-1.536 4.1758q-.384 1.104-1.968 3.9838l-2.6878-1.488ZM1045.3338 93.3625l2.5919 1.7759q-.96 1.2-2.736 3.5518l-1.4878 1.68q-1.008 1.104-1.584 1.5839l-2.1599-2.208q.864-.7679 1.44-1.4878l1.3919-1.584q1.68-2.2079 2.5439-3.3118ZM1031.3184 109.7298l-1.392-2.7839 3.5999-2.064q1.056-.6239 1.7279-1.1999l1.68-1.248 1.9199 2.448-1.776 1.344q-.672.5759-1.8719 1.2479l-3.8878 2.2559ZM1018.7429 113.9056l-.528-3.0719q1.68-.24 4.0318-.912l.96-.24 2.8799-1.0559 1.152 2.88-3.168 1.1519-1.1039.24q-2.112.672-4.2238 1.008ZM1014.375 114.4816q-4.3678.336-8.9276-.24l.384-3.0719q4.4158.528 8.3037.192l.24 3.1199ZM1001.1276 113.4736q-4.3198-1.008-8.4477-2.8319l1.248-2.8798q3.6958 1.6799 7.9197 2.6399l-.72 3.0718ZM988.744 108.6738q-1.8238-1.008-3.7918-2.4479-1.6799-1.2-3.4558-2.8319l2.1119-2.3519q1.68 1.632 3.1679 2.64 1.344 1.0079 3.5038 2.3038l-1.536 2.688ZM975.6406 91.5865l2.352 3.4079q1.1039 1.44 1.2959 1.68l1.392 1.5359-2.304 2.1119-1.488-1.632q-.9119-1.2-1.3919-1.7759l-2.4959-3.6958 2.64-1.632ZM967.817 80.979l3.0238-.768 1.968 5.8557.9119 1.872-2.8319 1.344-.96-2.016-2.1119-6.2877ZM969.5449 69.9874l.24 4.1278q0 .096.288 2.064l-3.072.48-.336-2.208-.2399-4.4638.144-2.256 3.1199.144-.144 2.112ZM972.1368 55.828l-1.728 5.9517-.336 2.064-3.0718-.48.864-4.3679 1.3439-4.2718 2.9279 1.104ZM971.8488 48.7723l3.7438-5.7118 2.448 1.92-1.248 1.6799-3.0719 5.4717-2.8319-1.344.96-2.0158ZM978.3765 39.7006q1.344-1.4879 3.2159-3.1678 1.728-1.536 3.5038-2.736l1.824 2.544q-1.536 1.008-3.2639 2.5919-1.44 1.152-2.9759 2.8798l-2.3039-2.1119ZM988.696 31.397q3.84-2.16 8.2078-3.6479l.96 2.9279q-4.032 1.392-7.5838 3.4559l-1.584-2.736ZM1003.3835 26.1172l6.6237-.672.048 3.1199-7.2477.768-.96.24-.672-3.024 2.208-.432ZM1014.135 28.709l.24-3.1198q4.4159.288 8.8317 1.536l-.864 3.0238q-4.0318-1.152-8.2076-1.44ZM1027.3345 28.565q3.8399 1.44 7.9677 4.032l-1.728 2.6398q-3.3118-2.2079-7.3916-3.7918l1.152-2.88ZM1042.8859 43.3965l-4.4638-4.4158q-.48-.528-1.536-1.392l1.92-2.3999q.96.72 1.6799 1.44l1.68 1.4879q.3839.384 3.0718 3.3119l-2.352 1.9679ZM1047.9257 44.8844l2.3039 3.8399q.816 1.296 1.968 4.0318l-2.88 1.2-3.9838-7.2957 2.5919-1.776ZM1054.7894 61.1558q.336 1.4399.624 4.5118l-3.0719.288-.624-4.1279q-.096-.816-.432-2.0159l-.576-2.0159 2.976-.96 1.1039 4.3199Z"/><g filter="url(#g)"><path fill="#FFF" d="M1072.881 85.9954q5.3757 0 9.1675 4.3198 3.7918 4.2717 3.7918 10.3194 0 6.0476-3.7918 10.3674-3.7918 4.2718-9.1675 4.2718h-48.4292q-4.0318 0-6.9116-3.2159-2.8318-3.2638-2.8318-7.8235 0-4.5598 2.8318-7.8236 2.8798-3.2158 6.9116-3.2158 1.344 0 2.8798.48.72-5.3277 4.3198-8.8795 3.6478-3.5998 8.4955-3.5998 2.9278 0 5.4717 1.392 1.7759-3.3599 5.0397-5.3758 3.2158-1.9679 7.0556-2.0639 4.6557 0 8.4475 3.0719 3.6958 3.0238 5.1357 7.8715 1.056-.096 1.584-.096Z"/></g><path fill="#CCC" d="M149.7326 214.0093q-.5937-.375-1.2812-.2187-.6875.125-1.0625.7187-.4062.5938-.25 1.2812l1.7187 7.7499q.1563.6874.75 1.0624.5938.375 1.2812.2188.6875-.1563 1.0625-.75t.2188-1.2812l-1.7188-7.7186q-.125-.6875-.7187-1.0625Z"/><path fill="#CCC" d="M154.9512 219.353q.375-.5938.2188-1.2813-.1563-.6874-.75-1.0624-.5937-.3438-1.2812-.2188l-7.7186 1.7187q-.6875.1563-1.0625.7188-.375.5937-.2187 1.2812.1562.6875.7187 1.0625.5938.4062 1.2813.25l7.781-1.7188q.6562-.1562 1.0312-.75ZM761.7355 97.1366q-1.2776-.807-2.7568-.4707-1.4793.269-2.2862 1.5465-.8741 1.2775-.5379 2.7568l3.6982 16.6754q.3362 1.4792 1.6137 2.2861 1.2776.8069 2.7568.4707 1.4793-.3362 2.2862-1.6138.8068-1.2775.4706-2.7568l-3.6981-16.6081q-.269-1.4793-1.5465-2.2861Z"/><path fill="#CCC" d="M772.9644 108.6345q.807-1.2776.4707-2.7568-.3362-1.4793-1.6137-2.2862-1.2776-.7396-2.7568-.4706l-16.6082 3.6981q-1.4792.3362-2.2861 1.5465-.8069 1.2776-.4707 2.7568.3362 1.4793 1.5465 2.2862 1.2776.8741 2.7568.5379l16.7426-3.6982q1.412-.3362 2.219-1.6137Z"/><path fill="#E9EAEA" d="M448.6143 628.687q-4.215 0-7.2167 3.0016-3.0017 3.0016-3.0017 7.2167 0 4.279 3.0017 7.2167 3.0016 3.0017 7.2167 3.0017 4.279 0 7.2167-3.0017 3.0017-2.9377 3.0017-7.2167 0-4.215-3.0017-7.2167-2.9377-3.0017-7.2167-3.0017Z"/><path fill="#B4E5FF" d="m1080.0367 316.2959-17.312-10.5622-36.9992 9.906 17.1558 64.0921 50.53-13.5309-13.3746-49.905Z"/><path fill="#645DBA" d="m1036.5355 323.7017.5256 1.962 33.9581-9.098-.5257-1.962-33.958 9.098ZM1039.3164 334.9268l.5257 1.962 33.958-9.098-.5256-1.9621-33.958 9.098ZM1042.0974 346.1518l.5257 1.962 33.958-9.098-.5257-1.962-33.958 9.098ZM1044.8783 357.3768l.5257 1.962 33.958-9.098-.5256-1.962-33.958 9.098ZM1048.7158 368.3188l.5256 1.962 33.958-9.098-.5256-1.962-33.958 9.098Z"/><path fill="#B4E5FF" d="m1093.43 432.556-4.7732-19.7101-33.1674-19.1572-33.1881 57.4518 45.2985 26.1616 25.8302-44.7461Z"/><path fill="#645DBA" d="m1057.4645 406.9985-1.0156 1.759 30.445 17.5773 1.0156-1.759-30.445-17.5773ZM1051.494 416.9021l-1.0155 1.759 30.445 17.5773 1.0156-1.759-30.445-17.5773ZM1045.5237 426.8058l-1.0156 1.759 30.445 17.5773 1.0156-1.759-30.445-17.5773ZM1039.5533 436.7094l-1.0156 1.759 30.445 17.5773 1.0156-1.759-30.445-17.5773ZM1034.53 447.16l-1.0155 1.759 30.445 17.5772 1.0155-1.759-30.445-17.5773Z"/><path fill="#0067B8" d="M136.85 305.3q-1.85-1.85-3.7 0l-30.1 30.15q-1.85 1.8 0 3.65l30.15 30.1q1.8 1.85 3.65.05l30.1-30.15q1.85-1.85.05-3.7l-30.15-30.1Z"/><path fill="#FFF" d="M131.25 350.35q-1.8.25-3.15.65.8-2 1.2-4.9.7-5.9-1.75-10.5-2.35-4.5-13.9-1.15-5.75 1.7-11.1 4.3.05-.15 15.5 15.35 7.75 7.8 15.45 15.6 10.35-16.05 3.45-18.95-2.1-.9-5.7-.4ZM137.1 321.4q-2-2-4.8-2-2.8.05-4.75 2-2 2-2 4.75 0 2.8 2 4.8 1.95 1.95 4.75 1.95t4.8-2q1.95-1.95 1.95-4.75t-1.95-4.75Z"/><path fill="#0067B8" d="M116.823 255.1714q-2.5297.667-1.8627 3.1967l10.8948 41.1853q.6237 2.5047 3.1535 1.8377l41.1854-10.8948q2.5046-.6238 1.8808-3.1284L161.18 246.1826q-.667-2.5298-3.1716-1.906l-41.1853 10.8948Z"/><path fill="#FFF" d="M156.1952 277.9444q-1.8348 1.3612-3.2153 4.7233-.6902 1.681-1.0243 3.0488-1.3252-1.6981-3.6294-3.5037-4.745-3.5753-9.9529-3.7744-5.071-.2353-7.9917 11.4303-1.4261 5.8238-1.8733 11.7551-.1044-.1187 21.0658-5.6635 10.641-2.7689 21.2567-5.4945-8.6561-17.0229-14.6356-12.5214ZM130.849 263.0749q-2.735.721-4.1447 3.1402-1.3665 2.4443-.6635 5.1108.721 2.735 3.097 4.1194 2.4192 1.4097 5.154.6887 2.6666-.703 4.0763-3.1222 1.4097-2.4191.6887-5.154-.703-2.6665-3.1222-4.0762t-5.0857-.7067Z"/><path stroke="#FFF" stroke-width="3" stroke-miterlimit="10" fill="none" d="M995.7139 469.6962q4.1561 0 7.0623 2.9375 2.9374 2.9374 2.9374 7.0623 0 4.1561-2.9374 7.0623-2.9062 2.9374-7.0623 2.9374-4.1562 0-7.0623-2.9374-2.9375-2.9062-2.9375-7.0623 0-4.125 2.9375-7.0623 2.9061-2.9375 7.0623-2.9375Z"/><path stroke="#CCC" stroke-width="3" stroke-miterlimit="10" fill="none" d="M395.6626 614.6308q4.1562 0 7.0624 2.9374 2.9374 2.9374 2.9374 7.0623 0 4.1562-2.9374 7.0624-2.9062 2.9374-7.0624 2.9374-4.1561 0-7.0623-2.9374-2.9374-2.9062-2.9374-7.0624 0-4.1249 2.9374-7.0623 2.9062-2.9374 7.0623-2.9374Z"/><path fill="#0067B8" d="M992.65 217.45v-.05q0-.6-.45-1-.45-.45-1.15-.45h-6.4q-.65 0-1.1.45-.45.4-.45 1v.05q0 .6.45 1.05.45.4 1.1.4h6.4q.7 0 1.15-.4.45-.45.45-1.05m6.25-1.5q-.65 0-1.1.45-.45.4-.45 1v.05q0 .6.45 1.05.45.4 1.1.4h6.4q.7 0 1.15-.4.45-.45.45-1.05v-.05q0-.6-.45-1-.45-.45-1.15-.45h-6.4m20.6 0h-6.4q-.65 0-1.1.45-.45.4-.45 1v.05q0 .6.45 1.05.45.4 1.1.4h6.4q.7 0 1.15-.4.45-.45.45-1.05v-.05q0-.6-.45-1-.45-.45-1.15-.45m15.85 2.55q.45-.45.45-1.05v-.05q0-.6-.45-1-.45-.45-1.15-.45h-6.4q-.65 0-1.1.45-.45.4-.45 1v.05q0 .6.45 1.05.45.4 1.1.4h6.4q.7 0 1.15-.4m15.05-22.6q-.4-.45-1-.45h-.05q-.6 0-1.05.45-.4.45-.4 1.1v6.4q0 .7.4 1.15.45.45 1.05.45h.05q.6 0 1-.45.45-.45.45-1.15V197q0-.65-.45-1.1m-1.05 13.45q-.6 0-1.05.45-.4.45-.4 1.1v5.05h-5q-.7 0-1.15.4-.45.45-.45 1.05v.05q0 .6.45 1 .45.45 1.15.45h6.5q.6 0 1-.45.401-.401.45-1v-6.55q0-.65-.45-1.1-.4-.45-1-.45h-.05m.05-52.35h-.05q-.6 0-1.05.45-.4.45-.4 1.1v6.4q0 .7.4 1.15.45.45 1.05.45h.05q.6 0 1-.45.45-.45.45-1.15v-6.4q0-.65-.45-1.1-.4-.45-1-.45m0-12.35h-.05q-.6 0-1.05.45-.4.45-.4 1.1v6.4q0 .7.4 1.15.45.45 1.05.45h.05q.6 0 1-.45.45-.45.45-1.15v-6.4q0-.65-.45-1.1-.4-.45-1-.45m1-13.1q-.4-.45-1-.45h-.05q-.6 0-1.05.45-.4.45-.4 1.1v6.4q0 .7.4 1.15.45.45 1.05.45h.05q.6 0 1-.45.45-.45.45-1.15v-6.4q0-.65-.45-1.1ZM1033.65 189.3q1.95 1.95 4.7 2.05h23.35q2.9 0 4.95-2.05 2-2 2-4.9 0-2.6-1.7-4.6-1.75-1.95-4.35-2.3-1.15-4.95-5.45-7.65-4.35-2.7-9.3-1.55-3.4.85-5.9 3.25-2.5 2.5-3.25 5.9h-.35q-2.9.1-4.85 2.2-1.95 2.05-1.9 4.95.1 2.8 2.05 4.7ZM1049.25 122.5q-.65 0-1.1.8l-2.4 4.15q-.4.75-.1 1.3.3.55 1.2.55h4.75q.9 0 1.25-.55.3-.55-.15-1.3l-2.35-4.15q-.45-.8-1.1-.8Z"/><path fill="#FFF" d="M1050.7551 174.5945q-.0937-.3125-.375-.4375-.2812-.1563-.5937-.0313-.3437.0938-.5.4688l-3.5937 6.2498q-.3124.5-.0937.875t.8125.375h1.3437v1.4062q0 .625.4375 1.0312.4375.4375 1.0312.4375h1.625q.625 0 1.0312-.4375.4375-.4062.4375-1.0312v-1.375h1.3437q.5937 0 .8125-.375.2187-.4062-.0938-.9062l-3.6249-6.2498Z"/></svg>